<svg xmlns="http://www.w3.org/2000/svg" width="1000" height="1000" viewBox="0 0 1000 1000" fill="#120f07"><style>svg{fill: #120f07;}@media(prefers-color-scheme: dark){svg{fill: #f8f5ed;}}</style><path d="M479.585.18c-2.348.156-9.928.626-16.81 1.178-80.298 5.472-161.058 32.131-230.256 75.99-96.227 61.065-169.611 154.028-206.081 261.296C12.888 378.281 4.72 418.469.921 462.956c-1.204 15.091-1.204 59.107 0 74.275 7.218 86.473 33.81 165.206 79.525 235.338 52.553 80.527 127.601 144.952 214.306 183.734 53.401 24.003 106.492 37.523 167.238 42.685 15.094 1.33 60.6 1.33 75.84.088 76.543-6.491 146.679-27.995 210.398-64.746 129.709-74.665 218.995-201.793 244.565-348.233 2.269-13.213 4.769-32.602 6.099-48.083 1.25-14.698 1.25-61.063-.08-75.839-3.83-44.644-11.887-83.814-25.491-123.922C923.831 192.75 807.179 76.176 661.367 26.611c-39.486-13.447-80.14-21.818-123.145-25.335C528.06.415 487.089-.365 479.585.18m28.353 80.505c13.708.161 27.354.576 33.02 1.12 19.394 1.956 48.089 7.04 64.506 11.417 17.12 4.612 39.015 11.417 43.391 13.604.861.391 3.989 1.644 6.882 2.737 5.704 2.111 19.077 8.131 28.688 12.821 39.643 19.625 74.201 44.644 107.507 77.872 34.949 34.87 60.046 69.507 80.531 111.023 24.08 48.866 37.606 97.497 42.923 154.806 5.318 55.903-1.956 112.665-22.127 173.023-19.704 58.873-48.24 107.192-89.991 152.226-13.135 14.153-34.87 33.463-52.383 46.44-9.148 6.885-28.54 20.017-34.32 23.222-1.413.781-3.21 1.877-3.913 2.267-13.132 8.21-43.942 23.849-59.892 30.337-66.608 27.284-142.606 35.023-218.523 22.362-63.329-10.636-120.794-35.5-174.354-75.452-10.479-7.819-22.44-17.508-28.537-23.142-1.722-1.561-3.988-3.598-5.083-4.532-6.016-5.238-23.763-23.298-32.912-33.62-41.422-46.833-74.219-110.632-90.556-176.463-2.722-10.868-6.711-30.806-7.787-38.937-3.926-28.146-4.306-33.228-4.306-61.374 0-27.756.38-34.245 3.419-56.294 5.509-40.343 15.639-77.794 30.645-113.369 5.002-11.806 15.513-33.306 19.311-39.717 1.204-2.033 4.052-6.881 6.331-10.713 6.509-11.102 16.12-25.253 26.055-38.31 28.062-37.137 67.235-73.414 107.499-99.606 55.123-35.73 123.302-58.48 190.537-63.407 5.944-.433 19.723-.507 33.437-.341"/><path d="M539.587 166.15a38.44 38.44 0 0 1-38.438 38.44 38.44 38.44 0 0 1-38.44-38.44 38.439 38.439 0 0 1 76.878 0m-38.273 93.195c-.469 4.456-1.565 12.822-2.343 18.608-.785 5.786-1.721 12.666-1.957 15.246-.627 5.55-5.242 43.392-7.426 60.594-.861 6.645-2.976 23.69-4.692 37.92a5364.297 5245.314 0 0 1-3.913 31.273c-.468 2.971-4.451 35.183-8.99 71.538-4.534 36.356-8.91 71.305-9.77 77.794-.862 6.412-2.817 21.892-4.299 34.402-1.489 12.431-3.128 25.8-3.596 29.71-.475 3.831-1.49 12.041-2.35 18.14-1.956 14.385-1.874 17.2.393 26.505 3.28 13.134 6.49 26.66 10.237 42.531 1.957 8.366 4.223 18.061 5.084 21.501.786 3.44 2.425 10.086 3.521 14.854 1.095 4.693 3.127 13.136 4.457 18.765 1.33 5.551 3.597 15.249 5.079 21.501 1.41 6.254 3.362 14.154 4.147 17.59.86 3.441 2.812 11.731 4.298 18.375 1.564 6.644 3.52 14.933 4.376 18.295.861 3.362 2.115 8.68 2.741 11.726 2.109 10.01 2.578 11.416 4.218 11.416 1.096 0 1.722-1.015 2.584-4.142 1.248-4.537 29.866-119.701 39.56-159.264 3.437-13.996 6.565-26.427 7.04-27.678 1.792-4.613 2.501-13.213 1.64-20.406-.392-3.91-1.64-14.62-2.734-23.846a1559.188 1524.604 0 0 1-2.349-21.11c-.235-2.345-1.33-11.492-2.343-20.327-1.02-8.835-3.127-27.13-4.69-40.657-1.565-13.525-3.287-28.849-3.914-34.01a3187.481 3116.78 0 0 1-2.735-23.455c-.86-7.74-2.576-23.378-3.906-34.792s-3.438-30.024-4.769-41.438c-1.253-11.416-3.603-31.43-5.083-44.565-1.49-13.136-3.438-30.022-4.224-37.686-.779-7.583-1.874-16.497-2.267-19.937-.467-3.361-1.72-14.386-2.893-24.471-4.223-38.937-5.395-47.928-6.257-48.24-.62-.235-1.248 2.422-1.873 7.74m150.885-3.519a38.44 38.44 0 0 1-38.439 38.44 38.44 38.44 0 0 1-38.439-38.44 38.439 38.439 0 0 1 76.878 0m-96.627 50.665c.31 1.25 1.406 5.238 2.42 8.757a1114.323 1089.606 0 0 1 3.83 12.901c1.095 3.596 2.976 10.008 4.223 14.307 1.33 4.3 3.989 13.448 6.02 20.33 9.695 33.15 14.621 50.038 16.97 57.465.856 2.815 2.343 8.053 3.363 11.727a1049.536 1026.257 0 0 0 5.311 18.374c3.597 12.04 9.46 31.977 17.362 59.03 2.425 8.365 5.236 17.903 6.256 21.11a300.176 293.518 0 0 1 2.97 10.164c1.563 5.708 28.302 97.027 34.241 116.651 1.957 6.411 2.742 7.898 4.926 9.617 1.488 1.093 12.67 8.287 24.865 16.028 12.195 7.661 25.642 16.185 29.942 18.998 22.363 14.387 69.118 43.549 69.9 43.549 1.408 0 1.016-1.173-1.72-6.02-1.487-2.502-5.708-10.555-9.539-17.826-3.753-7.35-7.114-13.682-7.427-14.074-.314-.469-2.972-5.394-5.865-10.947-7.505-14.541-19.701-37.528-22.594-42.767-.938-1.876-6.49-12.353-12.197-23.3s-11.887-22.594-13.685-25.8c-1.717-3.205-4.61-8.522-6.25-11.728-2.893-5.786-21.267-40.499-26.972-51.21a1037.659 1014.643 0 0 1-7.821-14.855c-2.742-5.16-9.231-17.513-14.468-27.365-5.236-9.93-12.979-24.473-17.196-32.447-4.223-7.974-9.15-17.278-10.948-20.719-1.798-3.439-5.16-9.773-7.427-14.073-5.629-10.79-10.872-20.641-15.013-28.538-1.956-3.675-5.553-10.555-8.053-15.246-2.502-4.769-5.629-10.711-7.035-13.292-3.286-6.098-7.743-14.385-17.594-33.228-15.558-29.476-18.843-35.574-20.09-36.747-1.097-1.016-1.179-.939-.704 1.173m-128.932-50.584a38.44 38.44 0 0 1-38.438 38.439 38.44 38.44 0 0 1-38.44-38.44 38.439 38.439 0 0 1 76.878 0m22.617 49.639c-.195-.041-.487.165-.88.633-1.096 1.33-11.257 20.406-38.546 72.243-6.332 12.118-10.866 20.563-14.07 26.583-1.647 2.971-5.319 10.007-8.213 15.636-2.893 5.551-5.546 10.478-5.863 10.948-.31.39-3.438 6.41-7.034 13.29a6107.18 5971.718 0 0 1-12.747 24.238c-3.361 6.41-8.13 15.402-10.48 19.937-2.423 4.533-5.786 10.867-7.502 14.073-1.722 3.205-5.243 9.929-7.82 14.854-2.583 4.926-6.647 12.666-9.15 17.202-2.423 4.533-6.957 12.979-10.003 18.764-6.958 13.525-19.16 36.51-22.439 42.61-1.411 2.58-4.305 8.053-6.414 12.12-5.863 11.18-34.006 64.502-40.89 77.401-3.362 6.255-9.694 18.217-14.074 26.583-13.367 25.41-15.014 28.537-15.716 29.319-1.013 1.016-.861 3.518.157 3.518.545 0 4.299-2.188 8.447-4.926 4.14-2.736 12.428-8.054 18.45-11.806a4031.861 3942.432 0 0 0 21.11-13.29 39507.705 38631.398 0 0 1 61.765-38.937c15.323-9.616 17.044-11.102 18.292-15.09.944-3.127 13.214-44.721 17.28-58.638 1.72-6.021 5.083-17.436 7.426-25.411 2.274-7.975 5.244-18.138 6.648-22.673 1.33-4.535 3.597-12.276 5.084-17.202 4.223-14.463 6.256-21.266 11.416-38.702 2.652-9.07 5.47-18.921 6.332-21.892.779-3.05 2.267-8.13 3.28-11.335 1.019-3.206 2.975-9.774 4.381-14.465 1.33-4.77 3.28-11.415 4.299-14.854s4.064-13.683 6.647-22.675c2.66-9.07 6.725-22.907 9.067-30.882 2.35-7.976 5.394-18.139 6.724-22.674 1.254-4.533 3.362-11.571 4.533-15.637 1.254-4.065 3.52-11.806 5.084-17.2s3.521-12.12 4.376-15.09c1.29-4.106 1.613-6.452 1.038-6.576"/></svg>
