<svg width="1080" height="1080" xmlns="http://www.w3.org/2000/svg" fill="1a1a1a"><g><path d="M517.953.195c-2.536.168-10.722.675-18.155 1.271-86.722 5.91-173.942 34.703-248.677 82.069-103.926 65.951-183.18 166.35-222.568 282.2C13.919 408.546 5.098 451.948.995 499.994c-1.299 16.298-1.299 63.836 0 80.217 7.795 93.39 36.516 178.422 85.888 254.165 56.757 86.969 137.809 156.548 231.451 198.434 57.673 25.92 115.011 40.52 180.617 46.1 16.302 1.44 65.448 1.44 81.907.09 82.666-7.01 158.413-30.23 227.23-69.92 140.087-80.64 236.512-217.938 264.132-376.094 2.45-14.27 5.15-35.21 6.59-51.93 1.34-15.875 1.34-65.948-.09-81.907-4.14-48.215-12.84-90.518-27.53-133.836C997.739 208.171 871.755 82.271 714.278 28.74 671.634 14.217 627.726 5.176 581.282 1.378 570.306.449 526.057-.393 517.953.195m30.622 86.944c14.804.175 29.541.622 35.661 1.21 20.946 2.113 51.936 7.603 69.667 12.33 18.49 4.982 42.137 12.33 46.862 14.692.93.422 4.309 1.775 7.433 2.956 6.162 2.28 20.604 8.782 30.983 13.847 42.814 21.195 80.138 48.217 116.109 84.103 37.745 37.66 64.849 75.068 86.973 119.904 26.006 52.775 40.615 105.297 46.358 167.192 5.742 60.373-2.112 121.677-23.898 186.864-21.279 63.583-52.099 115.767-97.19 164.404-14.186 15.285-37.659 36.14-56.574 50.155-9.88 7.436-30.823 21.618-37.066 25.081-1.526.842-3.467 2.026-4.226 2.447-14.183 8.867-47.457 25.757-64.683 32.764-71.938 29.467-154.015 37.822-236.006 24.151-68.395-11.487-130.458-38.34-188.302-81.488-11.317-8.445-24.235-18.909-30.819-24.994-1.861-1.685-4.308-3.885-5.492-4.894-6.496-5.657-25.663-25.162-35.544-36.31-44.736-50.58-80.158-119.483-97.8-190.581-2.94-11.736-7.249-33.269-8.41-42.051-4.241-30.398-4.651-35.886-4.651-66.285 0-29.975.41-36.984 3.693-60.796 5.949-43.57 16.891-84.018 33.097-122.438 5.402-12.75 16.754-35.97 20.856-42.895 1.3-2.195 4.376-7.431 6.838-11.569 7.03-11.991 17.41-27.274 28.139-41.375 30.307-40.109 72.614-79.288 116.099-107.576 59.533-38.588 133.166-63.158 205.781-68.48 6.42-.468 21.3-.548 36.112-.368"/><ellipse cx="542.263" cy="178.702" ry="41.515" rx="41.514"/><path d="M542.442 279.354c-.507 4.812-1.69 13.848-2.531 20.096-.848 6.249-1.86 13.679-2.114 16.466-.677 5.995-5.661 46.863-8.02 65.441-.93 7.177-3.215 25.585-5.067 40.953a5516 5516 0 0 1-4.227 33.775c-.505 3.209-4.807 37.998-9.709 77.262-4.897 39.265-9.622 77.01-10.551 84.017-.931 6.925-3.043 23.644-4.644 37.155-1.607 13.425-3.378 27.865-3.883 32.086-.513 4.138-1.608 13.005-2.538 19.591-2.113 15.536-2.024 18.577.424 28.625 3.542 14.185 7.009 28.793 11.057 45.935 2.113 9.034 4.561 19.506 5.491 23.22.849 3.716 2.619 10.893 3.803 16.044 1.182 5.066 3.377 14.186 4.814 20.265 1.436 5.996 3.883 16.469 5.484 23.222 1.524 6.754 3.631 15.285 4.479 18.996.929 3.718 3.036 12.671 4.643 19.845 1.688 7.176 3.801 16.129 4.725 19.759.93 3.631 2.284 9.375 2.96 12.664 2.278 10.812 2.784 12.33 4.555 12.33 1.183 0 1.86-1.097 2.79-4.473 1.348-4.901 32.256-129.278 42.724-172.005 3.714-15.115 7.092-28.541 7.605-29.892 1.935-4.982 2.701-14.27 1.771-22.039-.424-4.222-1.771-15.789-2.954-25.753s-2.284-20.267-2.537-22.8c-.253-2.532-1.436-12.412-2.531-21.953-1.1-9.542-3.377-29.3-5.066-43.91-1.69-14.607-3.549-31.157-4.226-36.731-.671-5.572-2.025-16.972-2.954-25.331-.93-8.36-2.783-25.248-4.219-37.576s-3.713-32.425-5.149-44.753c-1.354-12.328-3.892-33.944-5.491-48.13-1.608-14.186-3.713-32.425-4.562-40.7-.841-8.191-2.024-17.817-2.448-21.532-.505-3.631-1.859-15.538-3.125-26.43-4.561-42.051-5.826-51.761-6.756-52.099-.67-.254-1.347 2.617-2.023 8.36"/><ellipse cx="663.887" cy="275.554" ry="41.515" rx="41.514"/><path d="M601.044 330.271c.335 1.35 1.518 5.657 2.612 9.457a1165 1165 0 0 1 4.138 13.932c1.182 3.885 3.213 10.809 4.561 15.452 1.436 4.645 4.308 14.524 6.502 21.955 10.47 35.803 15.79 54.041 18.327 62.063.923 3.04 2.53 8.697 3.631 12.666 1.094 3.969 3.63 12.834 5.737 19.843 3.884 13.003 10.216 34.536 18.75 63.753 2.62 9.034 5.655 19.336 6.756 22.798a311 311 0 0 1 3.207 10.977c1.689 6.164 30.568 104.789 36.982 125.984 2.113 6.924 2.96 8.529 5.32 10.386 1.606 1.182 13.682 8.95 26.853 17.31 13.17 8.275 27.694 17.479 32.338 20.519 24.152 15.538 74.647 47.033 75.492 47.033 1.52 0 1.097-1.267-1.857-6.502-1.606-2.702-6.165-11.4-10.303-19.252-4.053-7.938-7.683-14.777-8.021-15.199-.338-.507-3.209-5.827-6.334-11.823-8.106-15.705-21.278-40.529-24.402-46.187-1.014-2.027-7.009-13.342-13.173-25.164-6.165-11.821-12.839-24.402-14.78-27.865-1.854-3.461-4.979-9.204-6.75-12.666-3.125-6.248-22.969-43.739-29.13-55.307a1091 1091 0 0 1-8.446-16.044c-2.96-5.573-9.969-18.914-15.625-29.554-5.655-10.723-14.018-26.43-18.572-35.042-4.561-8.613-9.881-18.661-11.824-22.377-1.941-3.715-5.572-10.554-8.02-15.199-6.079-11.653-11.742-22.292-16.214-30.82-2.113-3.969-5.997-11.4-8.698-16.466-2.701-5.15-6.079-11.568-7.597-14.355-3.549-6.586-8.363-15.536-19.003-35.887-16.802-31.833-20.35-38.419-21.698-39.686-1.183-1.097-1.272-1.014-.759 1.267"/><ellipse cx="420.284" cy="275.638" ry="41.515" rx="41.514"/><path d="M486.224 329.249c-.211-.045-.526.177-.95.684-1.183 1.436-12.158 22.038-41.63 78.022-6.839 13.088-11.735 22.208-15.195 28.71-1.778 3.208-5.744 10.807-8.869 16.887-3.125 5.996-5.991 11.316-6.332 11.823-.336.421-3.713 6.924-7.597 14.353a6403 6403 0 0 1-13.766 26.177c-3.631 6.925-8.78 16.635-11.317 21.533-2.619 4.897-6.25 11.736-8.103 15.198-1.86 3.462-5.662 10.723-8.445 16.044-2.79 5.319-7.18 13.679-9.882 18.577-2.618 4.897-7.514 14.017-10.804 20.265-7.515 14.607-20.692 39.433-24.235 46.019-1.524 2.787-4.649 8.698-6.926 13.089-6.332 12.075-36.728 69.663-44.161 83.595-3.631 6.755-10.469 19.674-15.201 28.709-14.435 27.443-16.214 30.82-16.973 31.665-1.094 1.098-.93 3.8.171 3.8.588 0 4.643-2.363 9.123-5.32 4.471-2.955 13.422-8.697 19.926-12.751 6.503-4.053 16.801-10.554 22.798-14.354a42631 42631 0 0 1 66.706-42.051c16.549-10.386 18.408-11.99 19.756-16.296 1.019-3.378 14.271-48.3 18.662-63.33 1.859-6.502 5.49-18.83 8.02-27.444 2.455-8.612 5.662-19.588 7.181-24.486 1.436-4.898 3.884-13.258 5.49-18.577 4.561-15.621 6.756-22.968 12.33-41.798 2.865-9.795 5.908-20.436 6.838-23.644.841-3.293 2.448-8.78 3.542-12.242 1.101-3.462 3.214-10.557 4.733-15.622 1.435-5.152 3.541-12.328 4.643-16.044 1.1-3.714 4.389-14.777 7.179-24.488 2.872-9.795 7.263-24.74 9.792-33.353 2.538-8.613 5.827-19.589 7.263-24.487 1.354-4.897 3.63-12.498 4.896-16.889 1.354-4.39 3.802-12.749 5.49-18.575 1.69-5.827 3.803-13.089 4.727-16.298 1.394-4.433 1.742-6.967 1.12-7.101"/></g></svg>
