<svg viewBox="46.259 -216.698 1990.41 1080" fill="none" xmlns="http://www.w3.org/2000/svg" width="1990.41" height="1080"><path d="M662.22-209.188q-5.401 4.799-12.603 16.203t-6.603 13.205 2.4 1.801 7.202-9.005q5.404-9.002 9.005-12.004t4.802-1.8q1.198 1.198-3.601 15.605-4.805 14.402-17.407 42.612t-36.013 30.01-63.019 7.801q-39.614 6.004-96.032 19.207-56.419 13.208-196.862 57.62Q113.046 16.482 99.838 22.483q-13.201 6.004-27.011 15.006-13.8 9.002-14.405 13.205-.599 4.2 1.801 7.801t13.201 3.002q10.806-.602 63.624-15.006t108.635-33.009Q301.5-5.126 369.324-25.533t117.038-31.211q49.216-10.803 91.231-16.203l42.014-5.404L588.994-.923q-30.609 77.424-52.216 125.44t-43.214 90.629q-21.607 42.616-64.22 48.016t-147.648 15.006q-105.034 9.6-128.443 8.403-23.408-1.201-28.809-4.802-5.404-3.601-6.601-9.005l-1.201-5.401-2.4.599q-2.403.602-1.801 6.003t4.802 11.405q4.203 5.999 10.206 9.002t18.006 4.802q12.001 1.801 111.637 2.4 99.633.599 147.647-3.601l48.016-4.2-34.21 62.42q-34.21 62.418-65.424 112.835-31.211 50.416-56.419 87.031-25.205 36.611-43.211 60.017-18.006 23.408-21.607 26.409-3.601 3.002-9.005 3.002t-6.601 1.201q-1.204 1.204.599 3.601t9.005 3.601q7.2 1.201 17.404-2.4 10.202-3.601 24.007-16.207 13.806-12.603 23.407-24.606 9.607-12.004 28.809-39.012 19.209-27.011 45.016-67.824t74.425-128.443q48.615-87.627 108.635-97.229t112.236-21.607 95.43-24.609 95.434-31.81q52.216-19.207 82.226-34.213t56.419-33.009 46.213-37.212q19.808-19.207 32.41-38.413t17.407-34.21q4.799-15.006 4.802-28.21 0-13.201-3.002-22.206-2.999-9.002-6.003-13.806-2.999-4.799-12.603-13.803t-30.612-19.808-59.418-20.406q-38.413-9.6-82.226-15.004t-74.425-7.202-82.226-1.8-68.423 1.201l-16.805 1.201 10.803-42.616q10.803-42.616 10.803-47.414 0-4.805-4.203-6.003-4.2-1.204-9.604 3.601m82.828 123.638q47.417 0 93.029 3.002 45.618 3.002 87.031 9.002 41.412 6.004 67.821 12.606t38.413 12.603 18.006 12.004 7.801 10.803 1.201 15.006q-.599 10.202-6.003 24.606-5.401 14.405-16.805 30.01t-33.009 34.812-43.214 33.012q-21.607 13.8-60.02 31.81-38.413 18.006-81.025 33.009-42.616 15.006-89.428 28.21-46.815 13.201-90.632 22.808a1583 1583 0 0 1-88.829 16.805l-45.014 7.202 19.804-40.214a1985 1985 0 0 0 38.413-82.825q18.608-42.616 41.415-100.234t31.211-83.427q8.4-25.807 35.411-28.21 27.011-2.4 74.425-2.4M1741.97 20.685q-3.598 5.401-2.999 7.202t2.4 1.8 2.999-1.8l1.201-1.801-2.999 15.605q-3.002 15.605-12.606 44.415t-22.206 74.425-34.21 111.637-34.812 100.831q-13.208 34.815-58.22 45.615-45.014 10.803-107.434 21.008t-95.43 19.804l-33.012 9.604-.599-4.802q-.602-4.799-2.4-6.601t-7.804-1.801-19.804 9.005q-13.806 9.002-37.212 30.01-23.408 21.005-66.62 49.814-43.214 28.809-67.222 40.813t-34.213 15.006q-10.202 2.999-18.605 2.4t-11.405-4.802-.599-17.407 16.805-52.818 31.211-45.615 34.812-15.004a399 399 0 0 0 34.21-19.207q16.203-10.206 30.01-21.008T1262.419 391q23.408-25.205 34.812-42.01t18.605-30.612a316 316 0 0 0 13.205-28.809q6.004-15.004 9.005-27.008t6.003-31.811 3.601-45.615 0-36.611-4.802-21.607-9.604-15.004-12.606-4.203-14.405 4.203-22.808 19.804q-15.603 15.605-40.212 48.615t-61.221 96.633-57.018 105.034q-20.41 41.415-30.612 65.421t-43.214 33.611q-33.009 9.604-42.612 10.206-9.604.599-12.004-1.201t-7.202-1.201-6.601 5.401 0 7.804 5.999 4.802 4.203 12.603q0 10.806-3.601 24.007t-9.604 23.408q-6.003 10.199-15.004 18.605-9.005 8.403-19.808 13.205a88.3 88.3 0 0 1-22.206 6.603q-11.405 1.8-19.808-.602t-15.004-9.002-9.604-17.407q-3.002-10.803-1.801-28.809 1.204-18.006 6.003-39.012 4.802-21.008 35.414-47.417 30.609-26.406 52.216-49.216 21.607-22.805 47.414-55.817t43.816-61.82q18.003-28.809 27.61-48.618t16.203-43.214q6.603-23.407 6.603-35.411t-2.4-19.207-7.804-11.405-10.803-4.2-16.805 7.202q-11.402 7.202-25.807 21.005t-30.01 32.41-31.81 41.415q-16.203 22.805-36.013 55.817t-34.812 61.821-26.409 54.616-16.805 42.014-29.411 36.611a932 932 0 0 1-47.414 37.814q-23.408 17.404-43.214 28.809-19.808 11.402-31.81 15.605t-25.81 4.802-21.005-.602q-7.205-1.204-12.004-3.601-4.802-2.399-9.005-7.801-4.203-5.401-5.401-14.405-1.204-9.005 4.802-16.805 5.999-7.804 15.004-30.01t10.803-30.612q1.801-8.403 1.801-22.206t-5.404-19.808-11.402-9.604q-6.004-3.601-18.006-4.802-12.004-1.198-33.611 4.802-21.607 6.004-37.212 14.405-15.605 8.403-33.611 21.607t-37.212 34.213q-19.207 21.005-27.61 34.21-8.403 13.208-15.605 30.612-7.202 17.401-9.002 32.41-1.8 15.004.599 21.607 2.4 6.601 6.003 10.202t13.205 6.601 26.409 2.4 34.812-5.401q18.006-4.805 30.609-10.803 12.606-6.003 25.81-15.004 13.201-9.005 28.207-24.007l15.006-15.006 4.2 7.804q4.203 7.801 14.405 15.004 10.206 7.202 18.608 9.005 8.4 1.8 22.808 1.8t28.809-3.601 42.01-17.404 59.421-35.414l31.81-21.607-1.8 11.405q-1.801 11.405-1.801 27.61t3.601 27.61 10.803 19.804 15.605 13.205 15.605 6.601q7.202 1.801 15.605 1.801t26.409-4.802 27.011-10.803q9.002-6.003 15.605-12.603t12.603-16.805 9.002-19.207q3.002-9.005 4.203-27.61t10.803-19.207 32.41-5.404l22.808-4.802-6.603 19.207q-6.601 19.207-9.002 32.41-2.4 13.201-.602 30.612 1.801 17.401 4.203 22.206 2.4 4.802 6.601 9.002 4.203 4.203 9.604 6.003t15.006 1.801 18.605-2.4q9.005-2.399 38.413-14.405t52.818-25.208 24.609-13.205h1.201l-1.801 6.003q-1.8 6.003-1.201 15.006t7.202 13.803 16.203 6.003q9.607 1.201 15.006 0t15.605-6.601 21.607-17.407q11.405-12.004 16.203-25.208 4.802-13.201 4.802-35.411t95.434-34.812 116.436-16.207q21.008-3.601 49.216-11.402l28.21-7.804-19.207 53.418q-19.209 53.417-31.211 95.43-12.004 42.014-126.041 46.213-114.037 4.206-382.924 21.607-268.889 17.407-450.146 24.007t-288.096 12.606-144.044 11.402q-37.212 5.401-62.42 11.405t-34.213 6.601q-9.002.602-11.405-1.201a8.8 8.8 0 0 0-5.401-1.8h-3.001v5.401q0 5.401 5.401 10.803 5.404 5.404 16.805 6.003 11.405.602 25.208-2.4 13.806-2.999 39.614-5.401t58.819-3.002 135.042-6.601 210.07-9.604 439.342-25.208q331.309-21.607 444.746-25.208l113.437-3.601-7.202 37.811q-7.202 37.814-8.403 66.623t2.999 45.014 9.604 22.808 10.206 9.604q4.799 3.002 15.605 5.401 10.803 2.4 22.206 2.4t33.611-4.802q22.206-4.799 67.824-19.804 45.613-15.004 81.624-30.01 36.013-15.004 76.825-34.812 40.813-19.804 84.629-43.813 43.813-24.007 70.821-40.214t30.01-21.005.602-8.403-10.803-5.404-60.622-6.601q-52.213-4.802-217.87-4.802h-165.651l13.205-46.213q13.201-46.217 31.81-99.035t30.01-55.817 25.81-4.203q14.405-1.198 18.605-4.2t4.203-7.804q0-4.799-4.802-10.202t-12.004-7.804-17.407-2.4h-10.202v-1.8q0-1.801 23.407-68.423 23.408-66.62 35.411-108.036 12.004-41.412 25.81-118.237t13.205-83.427-4.203-7.804q-3.601-1.198-7.202 4.203m-421.341 105.034q3.601 0 5.404 5.404 1.8 5.397.599 39.012-1.198 33.611-7.202 58.819t-16.805 49.814-23.407 43.816q-12.603 19.207-35.414 44.415-22.805 25.205-43.813 41.412t-46.815 30.01l-25.807 13.803 27.008-54.616a2116 2116 0 0 1 57.021-107.434q30.007-52.82 56.416-96.032t37.814-55.82q11.402-12.603 15.004-12.603m-229.875 25.807q3.002.605 3.002 7.202 0 6.603-4.203 23.408-4.2 16.802-22.808 50.416-18.605 33.608-39.614 63.019-21.005 29.408-40.811 54.017t-34.213 40.212-27.008 26.409l-12.606 10.803 16.207-33.611q16.203-33.608 43.214-79.224 27.008-45.618 58.217-91.231 31.211-45.615 44.415-58.819 13.205-13.201 16.203-12.606M641.215 425.799q10.803 0 15.605 1.801t4.802 2.999q0 1.204-4.203 6.603t-8.403 15.004-9.604 28.21-7.202 31.81q-1.801 13.208-10.202 24.007-8.403 10.803-25.208 25.81-16.805 15.004-40.214 28.809t-41.412 19.207-27.61 5.401-13.803-1.801q-4.206-1.8-6.603-5.401-2.4-3.601-2.4-9.604t3.601-18.006 15.605-33.009 21.008-33.012 22.806-25.804a322 322 0 0 1 30.01-26.409q16.207-12.603 35.414-22.209 19.204-9.6 28.207-12.004 9.005-2.4 19.808-2.4m660.213 84.027.602 15.006q.599 15.004-5.404 28.207t-18.006 22.209q-12.004 9.002-21.005 10.202l-9.005 1.201 1.801-9.604q1.801-9.604 9.604-22.808 7.801-13.201 15.004-21.607 7.202-8.403 16.805-15.605zm668.619 154.852q22.81 0 23.407 1.201l.602 1.201-9.005 2.999q-9.002 3.002-59.418 31.211t-105.634 55.82q-55.215 27.607-91.231 43.214-36.009 15.603-67.821 27.008-31.81 11.405-52.818 15.605-21.005 4.2-33.611 3.002-12.603-1.201-17.404-4.203t-7.804-8.403-2.999-19.804 2.999-37.814q3.002-23.408 11.405-64.22 8.4-40.813 169.254-42.014 160.853-1.204 189.064-3.002 28.207-1.8 51.015-1.8" fill="currentColor"/></svg>
