<svg xmlns="http://www.w3.org/2000/svg" viewBox="0 0 1804.4 103.8" fill="none"><path d="M1695.077 6.316c-11 6.8-13.5 9.1-12.4 11.9 1 2.6 4.1 1.9 16.9-3.7 10-4.4 12.2-5.8 13-8.1 1.2-3.6-.3-6-4.1-6.4-2.1-.2-5.7 1.5-13.4 6.3m-1667.8-4.4c-9.9 1.7-18.4 7.5-22.4 15.4-2.9 5.6-3.5 15.3-1.3 21.1 4 10.5 10.1 14.1 31.9 18.5 15.5 3.2 20.2 5.5 22.9 11.2 2.2 4.6 2.1 9.2-.2 14.4-6 13.1-30.3 15.2-41.3 3.6-4.1-4.3-5.8-9.4-5.8-17.3 0-5.7-.4-7.4-2-9-2.3-2.3-4.9-2.5-7.5-.6-1.6 1.2-1.8 2.4-1.4 9.2.2 4.4.3 13.5.1 20.2-.3 13.5.2 15.2 4.7 15.2 4 0 5.5-1.5 5.5-5.4 0-2 .1-3.6.2-3.6.2 0 2.5 1.4 5.2 3 9.7 6.1 22.8 7.6 34.4 4 13.3-4.1 20.7-13.3 21.6-26.5.5-8.8-.8-13.4-5.6-18.7-5.6-6.2-8.7-7.5-27.4-11.3-18.9-3.8-23.3-7.1-23.3-17.5 0-10.2 7.3-16.1 20-16.1 8.1 0 14.2 2.6 18.1 7.6 2.6 3.4 2.9 4.6 3.1 12.2.1 4.8.7 9.1 1.4 9.9 1.4 1.7 7.5 1.9 8.5.2s1.2-34.9.2-37.1c-1-2-5.8-2.3-7.6-.5-.7.7-1.2 2-1.2 3 0 2.3-.2 2.3-4.6-.7-6.3-4.3-16.9-6.1-26.2-4.4m1144 0c-9.9 1.7-18.4 7.5-22.4 15.4-2.9 5.6-3.5 15.3-1.3 21.1 4 10.5 10.1 14.1 31.9 18.5 15.5 3.2 20.2 5.5 22.9 11.2 2.2 4.6 2.1 9.2-.2 14.4-6 13.1-30.3 15.2-41.3 3.6-4.1-4.3-5.8-9.4-5.8-17.3 0-5.7-.4-7.4-2-9-2.3-2.3-4.9-2.5-7.5-.6-1.6 1.2-1.8 2.4-1.4 9.2.2 4.4.3 13.5.1 20.2-.3 13.5.2 15.2 4.7 15.2 4 0 5.5-1.5 5.5-5.4 0-2 .1-3.6.2-3.6.2 0 2.5 1.4 5.2 3 9.7 6.1 22.8 7.6 34.4 4 13.3-4.1 20.7-13.3 21.6-26.5.5-8.8-.8-13.4-5.6-18.7-5.6-6.2-8.7-7.5-27.4-11.3-18.9-3.8-23.3-7.1-23.3-17.5 0-10.2 7.3-16.1 20-16.1 8.1 0 14.2 2.6 18.1 7.6 2.6 3.4 2.9 4.6 3.1 12.2.1 4.8.7 9.1 1.4 9.9 1.4 1.7 7.5 1.9 8.5.2s1.2-34.9.2-37.1c-1-2-5.8-2.3-7.6-.5-.7.7-1.2 2-1.2 3 0 2.3-.2 2.3-4.6-.7-6.3-4.3-16.9-6.1-26.2-4.4m-687 2.1c-.7.7-1.2 2.1-1.2 3.3 0 3.4 2 4.5 8.2 4.5 7.3 0 7.8.8 7.8 14.1v10.2l-3.6-3.6c-4.7-4.7-9.2-6.2-18.4-6.1-12.7 0-21.6 5.6-26.9 16.8-5.5 11.4-5.8 29.5-.7 41 5.1 11.6 14 17.8 26.4 18.4 9.2.5 15-1.1 20.2-5.5 3.5-3 4-3.2 4-1.5 0 5 .5 5.2 12.4 5.2 11.8 0 13.6-.6 13.6-4.6 0-3.3-2.6-4.9-8-4.6-3.4.1-5.2-.3-6.1-1.5-1.1-1.3-1.4-9.5-1.4-43.2 0-22.9-.4-42.2-.8-42.9-1.1-1.7-23.8-1.7-25.5 0m3.9 34.6c4.2 2.2 5.8 3.8 7.8 7.7 2.3 4.4 2.6 6 2.6 16.9 0 15-.8 18.7-4.8 23.3-3.9 4.5-8.2 6.3-14.7 6.3-8.3 0-13.8-3.6-17.7-11.5-2.8-5.6-3.4-8.8-3.4-17.4 0-13.4 4.1-21.9 12.3-26 5.9-2.9 11.4-2.7 17.9.7m163.1-34.6c-.7.7-1.2 2.1-1.2 3.3 0 3.4 2 4.5 8.2 4.5 7.3 0 7.8.8 7.8 14.1v10.2l-3.6-3.6c-4.7-4.7-9.2-6.2-18.4-6.1-12.7 0-21.6 5.6-26.9 16.8-5.5 11.4-5.8 29.5-.7 41 5.1 11.6 14 17.8 26.4 18.4 9.2.5 15-1.1 20.2-5.5 3.5-3 4-3.2 4-1.5 0 5 .5 5.2 12.4 5.2 11.8 0 13.6-.6 13.6-4.6 0-3.3-2.6-4.9-8-4.6-3.4.1-5.2-.3-6.1-1.5-1.1-1.3-1.4-9.5-1.4-43.2 0-22.9-.4-42.2-.8-42.9-1.1-1.7-23.8-1.7-25.5 0m3.9 34.6c4.2 2.2 5.8 3.8 7.8 7.7 2.3 4.4 2.6 6 2.6 16.9 0 15-.8 18.7-4.8 23.3-3.9 4.5-8.2 6.3-14.7 6.3-8.3 0-13.8-3.6-17.7-11.5-2.8-5.6-3.4-8.8-3.4-17.4 0-13.4 4.1-21.9 12.3-26 5.9-2.9 11.4-2.7 17.9.7m251.7-33.2c-2 4.2-.1 5.9 7 6.2 5.1.2 6.4.7 7.3 2.4 1.7 3.2.9 73.9-.9 76.1-1 1.2-2.9 1.6-6.9 1.5-3.8-.1-5.7.3-6.4 1.3-.6.9-.8-1.9-.7-7.7.3-9.9-.6-12.4-4.6-12.4-3.6 0-4.6 2-4.6 8.7 0 8.1-1.4 11.3-5.1 11.3-1.6 0-3-.7-3.5-1.8-.5-.9-1.1-12.5-1.4-25.7-.5-23.1-.6-24.2-2.9-28.2-4.7-8.1-14.4-12.1-26.7-11-11.1 1.1-19.3 5.9-22.6 13.4-3.3 7.6-.9 13.5 6 14.9 3.6.7 7.7-1.4 8.7-4.5.3-1.2-.2-3.7-1.1-5.7-1.7-3.6-1.7-3.7.4-5.5 3.4-2.7 11.6-4.1 16.6-2.8 8 2.1 12.3 9.3 9.6 16-1.8 4.3-5.1 5.6-19.4 7.8-16.8 2.5-23.1 6.1-26.2 14.8-3.6 10.2.4 20.6 10 25.5 2.8 1.5 6.6 2.3 12.2 2.6 9.9.5 16.8-1.4 22-6.3 3-2.8 3.6-3.1 4.1-1.7 1.2 3.5 4.7 6.2 9.7 7.3 6.7 1.5 12.5 0 16-4.2 2.2-2.6 2.6-2.8 2.6-1.1 0 1.1.6 2.4 1.3 3 1.6 1.4 37.8 1.4 39.5 0 1.4-1.2 1.6-4.7.2-6.8-.6-1-2.4-1.4-6.4-1.2l-5.5.2-1.2-4.2c-.8-3.1-1-15.9-.8-44.3l.4-40-12.8-.2-12.8-.3zm-32 69.4c-.4 7.9-3.4 12.7-9.8 16-8.5 4.3-21.6 1.5-23.9-5.1-1.7-4.9-1.4-6.5 1.9-10.3 3.2-3.6 7.1-4.9 18.1-6.2 3.1-.3 7.3-1.4 9.5-2.3 4.7-2.1 4.8-1.9 4.2 7.9m428.6-71.2c-1.8 1.2-2.4 4.3-1.4 6.3.9 1.5 2.2 1.9 7 1.9 5 0 6.1.3 7 2 .8 1.5 1.1 15 .9 43.5-.2 44.2-.2 44.5 4.7 44.5 2.9 0 5.4-2.5 5.4-5.5 0-2.2.1-2.2 3.6 1 4.7 4.3 10.6 5.9 19.7 5.3 16.7-1.1 27.1-12 29.9-31.6 2.8-19-4.4-36.6-17-42-11.5-4.9-23-3.8-30.7 3l-4.6 4.1.7-13.4c1.2-22.3 2.7-19.7-11.9-19.8-6.7 0-12.7.3-13.3.7m54.3 34.9c8 5.9 12 16.4 11 29-.9 11.5-6 20.8-13.4 23.9-4.2 1.8-12.7 1.8-16.1 0-8.1-4.2-10.5-10.4-10.6-27.1 0-14 1.2-18.2 6.6-23.2 5.9-5.5 17-6.8 22.5-2.6m117.5-34.5c-.7.7-1.2 2.1-1.2 3.3 0 3.4 2 4.5 8.2 4.5 7.3 0 7.8.8 7.8 14.1v10.2l-3.6-3.6c-4.7-4.7-9.2-6.2-18.4-6.1-12.7 0-21.6 5.6-26.9 16.8-5.5 11.4-5.8 29.5-.7 41 5.1 11.6 14 17.8 26.4 18.4 9.2.5 15-1.1 20.2-5.5 3.5-3 4-3.2 4-1.5 0 5 .5 5.2 12.4 5.2 11.8 0 13.6-.6 13.6-4.6 0-3.3-2.6-4.9-8-4.6-3.4.1-5.2-.3-6.1-1.5-1.1-1.3-1.4-9.5-1.4-43.2 0-22.9-.4-42.2-.8-42.9-1.1-1.7-23.8-1.7-25.5 0m3.9 34.6c4.2 2.2 5.8 3.8 7.8 7.7 2.3 4.4 2.6 6 2.6 16.9 0 15-.8 18.7-4.8 23.3-3.9 4.5-8.2 6.3-14.7 6.3-8.3 0-13.8-3.6-17.7-11.5-2.8-5.6-3.4-8.8-3.4-17.4 0-13.4 4.1-21.9 12.3-26 5.9-2.9 11.4-2.7 17.9.7m-749-33c-2.9 5.5-.7 8.2 7 8.2 4.6 0 6.3.5 8.3 2.2 1.9 1.8 5.7 11.3 15.6 39.3 7.2 20.3 13.8 38.8 14.7 40.9 3 6.8 11.9 8.5 16.1 3.1 1-1.3 7.9-20 15.2-41.5 7.4-21.6 14.2-40.3 15.3-41.6 1.5-2 2.8-2.4 6.8-2.4 4.3 0 5.1-.3 6.1-2.5.8-1.9.8-3.1 0-5-1.3-2.8-4-3.1-15.7-1.6-3.3.5-10.8.3-16.7-.2-11.9-1.2-13.8-.6-13.8 4.2 0 4.1 1.8 5.1 8.6 5.1 7.5 0 8.9 1.2 8.2 7.3-.6 4.5-19.9 65.9-20.6 65.3-.9-1-22.2-66.3-22.2-68.3 0-3 2.8-4.3 9.5-4.3 4.9 0 5.7-.3 6.7-2.5.8-1.9.8-3.1-.1-5.1l-1.2-2.7-9.7.9c-12.4 1-17.6 1-28.3 0-8.2-.8-8.8-.7-9.8 1.2m-317.8.4c-4.7 2.3-5.3 10.3-1 13.3 2.5 1.7 7 2 9.7.5 1-.5 2.3-2.3 2.9-4 2.5-7.2-4.6-13.2-11.6-9.8m991 0c-4.7 2.3-5.3 10.3-1 13.3 2.5 1.7 7 2 9.7.5 1-.5 2.3-2.3 2.9-4 2.5-7.2-4.6-13.2-11.6-9.8m-1291.6 20.8c-15.9 4-25.7 18.2-25.8 37.3-.1 4.5.2 10 .6 12.2 2 11.1 10.8 21.8 20.6 25 7.6 2.6 19.9 1.7 27.1-1.8 10.2-5 17.5-15.8 15.2-22.5-.8-2.3-1.5-2.7-4.9-2.7-3.8 0-4 .2-5.8 5-3.5 9.6-10.2 14-20.3 13.3-11.1-.7-19.2-8.9-20.2-20.4-.2-3-.3-5.5-.1-5.6s12.1-.5 26.4-.8l26-.5v-8c0-5.4-.6-9.6-1.8-12.7-2.3-6-9.4-13.3-15.3-15.9-5.2-2.3-16.2-3.3-21.7-1.9m16.3 11.2c5.7 3 10 8.4 10.7 13.7l.6 4.1h-19.6c-12.3 0-19.8-.4-20.2-1-1.4-2.3 1-7.6 5.5-12.1 7.1-7.1 15-8.7 23-4.7m67.8-11.1c-2 .6-5.4 2.6-7.5 4.4l-3.9 3.3-1.1-2.9-1.1-2.9h-10.9c-11.4 0-13.3.6-13.3 4.4 0 4.1 1.6 5 7.4 4.8 4.8-.2 5.7.1 6.8 2 1.6 2.8 2.5 42.5 1.1 47.8-.9 3.4-1 3.5-6.8 3.8-3.3.2-6.5.8-7.2 1.4-1.7 1.3-1.7 5.2 0 6.6.7.7 8.4 1.1 20.2 1.1s19.5-.4 20.2-1.1c.7-.6 1.3-2 1.3-3.2 0-4-1.5-4.9-7.3-4.7-8.2.2-8.2.1-8.2-21.8 0-20.7 1-25.3 6.5-30.6 6-5.7 19-4 22.2 2.9 1.5 3.4.5 5.2-3.1 5.9-8 1.6-5.1 12.7 3.3 12.7 9.9 0 15-13.3 9.3-24.1-4.5-8.5-16.9-12.9-27.9-9.8m62.9-.1c-15.9 4-25.7 18.2-25.8 37.3-.1 4.5.2 10 .6 12.2 2 11.1 10.8 21.8 20.6 25 7.6 2.6 19.9 1.7 27.1-1.8 10.2-5 17.5-15.8 15.2-22.5-.8-2.3-1.5-2.7-4.9-2.7-3.8 0-4 .2-5.8 5-3.5 9.6-10.2 14-20.3 13.3-11.1-.7-19.2-8.9-20.2-20.4-.2-3-.3-5.5-.1-5.6s12.1-.5 26.4-.8l26-.5v-8c0-5.4-.6-9.6-1.8-12.7-2.3-6-9.4-13.3-15.3-15.9-5.2-2.3-16.2-3.3-21.7-1.9m16.3 11.2c5.7 3 10 8.4 10.7 13.7l.6 4.1h-19.6c-12.3 0-19.8-.4-20.2-1-1.4-2.3 1-7.6 5.5-12.1 7.1-7.1 15-8.7 23-4.7m69.8-10.8c-4.8 1.3-6.2 2.1-11 6.5l-2.8 2.5v-2.5c0-4.3-1.6-4.9-13-4.9-11.1 0-13 .6-13 4.5 0 3.4 2 4.5 8.2 4.5h5.7l1.1 4.1c1.7 6.2.9 46.1-.9 48.2-.9 1.2-2.9 1.7-6.5 1.7-2.9 0-5.7.5-6.4 1.2-1.6 1.6-1.5 5.3.1 6.6.7.6 8.7.9 20.1.8 20.6-.1 21.6-.4 20.2-5.9-.7-2.9-2.7-3.6-7.3-2.6-2.1.4-3.9.2-5-.6-1.6-1.2-1.8-3.3-1.8-21.2 0-18.8.1-20.1 2.3-24.6 3.2-6.4 8.8-9.7 16.6-9.7 8.9 0 14.3 3.8 16.6 11.6 1.3 4.4 1 39.5-.4 42.6-.6 1.3-2.3 1.8-6.9 2-6 .3-6.2.4-6.5 3.1-.6 5.2.3 5.4 19.8 5.5 18.9 0 21-.4 21-4.7 0-2.9-2.2-4.1-7.7-4.1-4.1 0-5.4-.4-6.3-1.9-.6-1.2-1-9.9-1-21.5 0-25-.7-28.6-7.1-34.8-7.3-7.2-17-9.4-28.1-6.4m207.9 0c-13.4 3.6-21.8 17.3-15.1 24.7 2.4 2.7 7.9 3.5 10.8 1.5 3.4-2.2 4-4.9 2-9.2-1.7-3.6-1.7-3.7.4-5.5 3.4-2.7 11.6-4.1 16.6-2.8 8 2.1 12.3 9.3 9.6 16-1.8 4.3-5.1 5.6-19.4 7.8-16.8 2.5-23.1 6.1-26.2 14.8-3.6 10.2.4 20.6 10 25.5 2.8 1.5 6.6 2.3 12.2 2.6 9.9.5 16.8-1.4 22-6.3 3-2.8 3.6-3.1 4.1-1.7 2.1 5.9 11.2 9.4 19 7.3 6.3-1.7 9.3-5.8 9.5-13.4.4-12.9-.4-15.7-4.6-15.7-3.6 0-4.6 2-4.6 8.7 0 8.1-1.4 11.3-5.1 11.3-1.6 0-3-.7-3.5-1.8-.5-.9-1.1-12.5-1.4-25.7-.5-23.1-.6-24.2-2.9-28.2-5.5-9.7-19.2-13.7-33.4-9.9m24.1 47.6c-.4 7.9-3.4 12.7-9.8 16-8.5 4.3-21.6 1.5-23.9-5.1-1.7-4.9-1.4-6.5 1.9-10.3 3.2-3.6 7.1-4.9 18.1-6.2 3.1-.3 7.3-1.4 9.5-2.3 4.7-2.1 4.8-1.9 4.2 7.9m403.9-48c-13.6 3.5-22.5 14.2-24.7 30.1-2.7 18.8 4.5 36.3 17.7 42.9 7.1 3.5 19.6 4 27.8 1 7.8-2.9 15.2-10.4 18.4-18.7 2.9-7.3 3.9-21.7 2.1-29.4-2.6-11.1-9.5-20.1-18-23.8-5.7-2.4-17.6-3.5-23.3-2.1m18 10.9c5.4 2.5 9.9 8.7 11.4 15.9s.7 20.4-1.5 25.7c-2.1 5-7.1 10.3-11.3 12.1-4.1 1.8-12.4 1.8-16.6 0-4.7-1.9-9.4-7.8-11.3-14.1-1.7-6.2-2-19.2-.5-24.3 1.5-5.2 5.7-11.7 8.7-13.7 6-3.9 14.6-4.5 21.1-1.6m69.1-10.8c-2 .6-5.4 2.6-7.5 4.4l-3.9 3.3-1.1-2.9-1.1-2.9h-10.9c-11.4 0-13.3.6-13.3 4.4 0 4.1 1.6 5 7.4 4.8 4.8-.2 5.7.1 6.8 2 1.6 2.8 2.5 42.5 1.1 47.8-.9 3.4-1 3.5-6.8 3.8-3.3.2-6.5.8-7.2 1.4-1.7 1.3-1.7 5.2 0 6.6.7.7 8.4 1.1 20.2 1.1s19.5-.4 20.2-1.1c.7-.6 1.3-2 1.3-3.2 0-4-1.5-4.9-7.3-4.7-8.2.2-8.2.1-8.2-21.8 0-20.7 1-25.3 6.5-30.6 6-5.7 19-4 22.2 2.9 1.5 3.4.5 5.2-3.1 5.9-8 1.6-5.1 12.7 3.3 12.7 9.9 0 15-13.3 9.3-24.1-4.5-8.5-16.9-12.9-27.9-9.8m182.9.3c-13.4 3.6-21.8 17.3-15.1 24.7 2.4 2.7 7.9 3.5 10.8 1.5 3.4-2.2 4-4.9 2-9.2-1.7-3.6-1.7-3.7.4-5.5 3.4-2.7 11.6-4.1 16.6-2.8 8 2.1 12.3 9.3 9.6 16-1.8 4.3-5.1 5.6-19.4 7.8-16.8 2.5-23.1 6.1-26.2 14.8-3.6 10.2.4 20.6 10 25.5 2.8 1.5 6.6 2.3 12.2 2.6 9.9.5 16.8-1.4 22-6.3 3-2.8 3.6-3.1 4.1-1.7 2.1 5.9 11.2 9.4 19 7.3 6.3-1.7 9.3-5.8 9.5-13.4.4-12.9-.4-15.7-4.6-15.7-3.6 0-4.6 2-4.6 8.7 0 8.1-1.4 11.3-5.1 11.3-1.6 0-3-.7-3.5-1.8-.5-.9-1.1-12.5-1.4-25.7-.5-23.1-.6-24.2-2.9-28.2-5.5-9.7-19.2-13.7-33.4-9.9m24.1 47.6c-.4 7.9-3.4 12.7-9.8 16-8.5 4.3-21.6 1.5-23.9-5.1-1.7-4.9-1.4-6.5 1.9-10.3 3.2-3.6 7.1-4.9 18.1-6.2 3.1-.3 7.3-1.4 9.5-2.3 4.7-2.1 4.8-1.9 4.2 7.9m372-47.9c-2 .6-5.4 2.6-7.5 4.4l-3.9 3.3-1.1-2.9-1.1-2.9h-10.9c-11.4 0-13.3.6-13.3 4.4 0 4.1 1.6 5 7.4 4.8 4.8-.2 5.7.1 6.8 2 1.6 2.8 2.5 42.5 1.1 47.8-.9 3.4-1 3.5-6.8 3.8-3.3.2-6.5.8-7.2 1.4-1.7 1.3-1.7 5.2 0 6.6.7.7 8.4 1.1 20.2 1.1s19.5-.4 20.2-1.1c.7-.6 1.3-2 1.3-3.2 0-4-1.5-4.9-7.3-4.7-8.2.2-8.2.1-8.2-21.8 0-20.7 1-25.3 6.5-30.6 6-5.7 19-4 22.2 2.9 1.5 3.4.5 5.2-3.1 5.9-8 1.6-5.1 12.7 3.3 12.7 9.9 0 15-13.3 9.3-24.1-4.5-8.5-16.9-12.9-27.9-9.8m101.9.3c-13.4 3.6-21.8 17.3-15.1 24.7 2.4 2.7 7.9 3.5 10.8 1.5 3.4-2.2 4-4.9 2-9.2-1.7-3.6-1.7-3.7.4-5.5 3.4-2.7 11.6-4.1 16.6-2.8 8 2.1 12.3 9.3 9.6 16-1.8 4.3-5.1 5.6-19.4 7.8-16.8 2.5-23.1 6.1-26.2 14.8-3.6 10.2.4 20.6 10 25.5 2.8 1.5 6.6 2.3 12.2 2.6 9.9.5 16.8-1.4 22-6.3 3-2.8 3.6-3.1 4.1-1.7 2.1 5.9 11.2 9.4 19 7.3 6.3-1.7 9.3-5.8 9.5-13.4.4-12.9-.4-15.7-4.6-15.7-3.6 0-4.6 2-4.6 8.7 0 8.1-1.4 11.3-5.1 11.3-1.6 0-3-.7-3.5-1.8-.5-.9-1.1-12.5-1.4-25.7-.5-23.1-.6-24.2-2.9-28.2-5.5-9.7-19.2-13.7-33.4-9.9m24.1 47.6c-.4 7.9-3.4 12.7-9.8 16-8.5 4.3-21.6 1.5-23.9-5.1-1.7-4.9-1.4-6.5 1.9-10.3 3.2-3.6 7.1-4.9 18.1-6.2 3.1-.3 7.3-1.4 9.5-2.3 4.7-2.1 4.8-1.9 4.2 7.9m-1374.8-44.1c-2.5 4.8-.2 7.3 7.2 7.5 7.6.2 7.8.7 7.8 26.6s-.2 26.4-7.8 26.6c-2.9.1-5.9.7-6.7 1.4-1.8 1.5-2 5.4-.2 6.8.7.5 8.8 1 19.7 1s19-.5 19.8-1c.6-.6 1.2-2.4 1.2-3.9 0-3.6-2.6-4.8-8.6-4.1-4 .4-4.2.3-5.4-3.2-.8-2.6-1.1-11.5-.9-30.4.2-14.7 0-27.3-.4-28-.6-.8-4.3-1.2-12.7-1.2-10.8 0-12 .2-13 1.9m991 0c-2.5 4.8-.2 7.3 7.2 7.5 7.6.2 7.8.7 7.8 26.6s-.2 26.4-7.8 26.6c-2.9.1-5.9.7-6.7 1.4-1.8 1.5-2 5.4-.2 6.8.7.5 8.8 1 19.7 1s19-.5 19.8-1c.6-.6 1.2-2.4 1.2-3.9 0-3.6-2.6-4.8-8.6-4.1-4 .4-4.2.3-5.4-3.2-.8-2.6-1.1-11.5-.9-30.4.2-14.7 0-27.3-.4-28-.6-.8-4.3-1.2-12.7-1.2-10.8 0-12 .2-13 1.9m130.2-.7c-.7.7-1.2 2.1-1.2 3.3 0 3.3 2 4.5 7.2 4.5 4.4 0 5 .3 5.9 2.7.6 1.6 1.4 12.9 1.8 25.3.8 24.8 1.2 26.7 7.4 31.4 10.6 8.1 29.9 7.5 39-1.1 2.6-2.6 2.7-2.6 2.7-.6 0 5.1.5 5.3 11.9 5.3 11.3 0 13.1-.6 13.1-4.6 0-3.3-3.4-5.3-7.9-4.7-6.5.9-6.6.7-6.7-31.6-.1-15.7-.2-29.2-.3-29.9-.1-.9-3-1.2-10.9-1.2-11.3 0-13.2.6-13.2 4.5 0 3.1 1.9 4.5 6.2 4.5 6.5 0 7.1 1.9 6.6 23.2-.4 16.5-.6 18.7-2.6 22.5-6 11.5-25.4 12.8-31.7 2.2-1.8-3.1-2-5.5-2.3-27.9-.1-13.5-.5-25.5-.7-26.8-.5-2.1-.9-2.2-11.8-2.2-7.5 0-11.7.4-12.5 1.2m160.8.7c-2.5 4.8-.2 7.3 7.2 7.5 7.6.2 7.8.7 7.8 26.6s-.2 26.4-7.8 26.6c-2.9.1-5.9.7-6.7 1.4-1.8 1.5-2 5.4-.2 6.8.7.5 8.8 1 19.7 1s19-.5 19.8-1c.6-.6 1.2-2.4 1.2-3.9 0-3.6-2.6-4.8-8.6-4.1-4 .4-4.2.3-5.4-3.2-.8-2.6-1.1-11.5-.9-30.4.2-14.7 0-27.3-.4-28-.6-.8-4.3-1.2-12.7-1.2-10.8 0-12 .2-13 1.9" fill="currentColor"/></svg>
