<svg xmlns="http://www.w3.org/2000/svg" viewBox="-516.791 -24.942 1080 71.359" width="1080" height="71.359" fill="none"><path d="M-491.596-21.381c3.318-.074 6.73.468 9.72 1.944l.167.082a17.3 17.3 0 0 1 2.442 1.456l.114.081a15.6 15.6 0 0 1 2.094 1.792l.134.067.007-.168c.147-2.919.147-2.919 1.05-3.77.562-.455 1.131-.557 1.826-.561l.187-.004c.702-.004 1.324.191 1.88.623.997 1.026 1.044 2.387 1.03 3.738-.013.781-.1 1.556-.187 2.333a55 55 0 0 0-.261 3.311l-.007.169a37 37 0 0 0-.04 1.219l-.007.216c-.027 1.531.074 3.045.187 4.57l.06.767.12 1.589.007.143q.039.438.087.875c.147 1.44.14 3.189-.722 4.409-.522.617-1.191 1.015-2 1.098q-.311.013-.622.009l-.227-.002c-.923-.019-1.759-.228-2.435-.899-.662-.781-.829-1.742-.823-2.732V.736c.007-.78.067-1.556.12-2.333.248-3.346 0-6.69-2.281-9.354-2.174-2.468-5.178-3.668-8.389-4.071l-.187-.023c-3.887-.472-8.208.031-11.412 2.431-.294.232-.569.48-.843.737l-.181.169c-.482.46-.856.952-1.224 1.503l-.114.164c-1.391 2.156-1.659 5.112-1.137 7.577a8.6 8.6 0 0 0 1.786 3.631l.161.192c.669.776 1.505 1.358 2.381 1.882l.227.135c3.117 1.811 7.278 2.241 10.777 2.833 11.285 1.909 11.285 1.909 15.205 5.525q.202.184.415.358c2.769 2.433 4.074 6.229 4.321 9.815q.018.367.027.733l.007.145c.12 4.49-1.224 9.119-4.355 12.431q-.102.125-.214.251a13 13 0 0 1-1.746 1.682q-.179.14-.348.289c-1.023.902-2.228 1.639-3.445 2.261l-.161.082c-3.124 1.598-6.736 2.394-10.242 2.407l-.261.001-.535.001q-.393.001-.796.005c-5.746.024-11.151-1.858-15.546-5.548l-.107-.09a11 11 0 0 1-.716-.671l.02.183c.355 3.559.355 3.559-.02 4.499l-.067.177a2.45 2.45 0 0 1-1.284 1.292 4.68 4.68 0 0 1-3.258-.005c-.729-.343-1.204-.866-1.498-1.625a5.4 5.4 0 0 1-.261-1.688v-.164c0-.405.033-.803.074-1.205a73 73 0 0 0 .187-2.138l.02-.195c.294-3.756.468-7.35.027-11.102l-.12-1.022-.107-.976c-.615-5.482-.615-5.482.635-7.103.495-.548 1.231-.831 1.953-.886q.293-.01.575-.007l.207.001c.93.015 1.699.242 2.388.881.749.828.95 1.971.937 3.053v.164q.002.176-.007.351v.561c0 .532-.007 1.063-.007 1.595-.033 3.724.455 7.491 3.017 10.405l.14.163q.231.256.462.506l.094.1c2.769 2.947 6.93 4.259 10.884 4.387.375.009.756.012 1.131.012h.174c3.907-.003 7.994-.852 10.998-3.495l.201-.17c2.067-1.817 3.111-4.351 3.398-7.055.154-2.603-.281-5.272-2.027-7.309a10.8 10.8 0 0 0-3.111-2.391l-.14-.075a14 14 0 0 0-2.007-.841l-.201-.07c-1.425-.466-2.903-.724-4.375-.98l-.736-.13-.301-.053-.154-.027-.448-.08c-9.559-1.688-9.559-1.688-13.646-3.365l-.14-.056c-1.806-.724-3.639-1.926-4.897-3.422-.114-.139-.241-.272-.361-.406-2.375-2.685-3.398-6.3-3.385-9.829v-.17c.007-1.002.06-1.983.221-2.974l.033-.202c.502-2.963 1.846-5.664 3.846-7.892l.1-.11c.328-.37.656-.729 1.037-1.048.154-.126.294-.26.435-.393 3.92-3.527 9.252-4.815 14.396-4.942m663.327-.001c5.622-.124 10.635 1.668 14.739 5.49l.003-.157c.058-2.783.058-2.783.861-3.743.675-.632 1.461-.681 2.34-.668.789.029 1.388.304 1.927.875.969 1.181.9 2.924.763 4.358l-.026.256-.026.274-.07.714c-.187 1.818-.187 1.818-.286 3.643l-.005.193a71 71 0 0 0-.024 1.597l-.001.258c-.007 2.659.232 5.318.486 7.963.106 1.339-.03 2.969-.924 4.038-.782.778-1.611.887-2.665.886-.932-.01-1.734-.217-2.44-.861-.708-.769-.864-1.777-.86-2.786V.769c.005-.572.048-1.14.096-1.71.294-3.524.183-7.068-2.173-9.915q-.222-.25-.454-.49l-.181-.193c-2.414-2.539-6.119-3.516-9.52-3.624a40 40 0 0 0-.973-.008h-.15c-3.624.008-7.208.941-9.88 3.499-1.82 1.867-2.59 4.344-2.592 6.911v.154c.001.76.033 1.486.217 2.225l.033.138c.37 1.539 1.151 2.81 2.242 3.942l.116.128c2.953 3.188 8.628 3.632 12.667 4.331 10.379 1.797 10.379 1.797 13.976 4.371l.201.143c3.286 2.397 5.235 5.777 5.867 9.783.13.913.167 1.822.166 2.743v.161c-.005 2.092-.295 4.11-.949 6.102l-.047.146c-.583 1.771-1.537 3.418-2.696 4.871l-.09.114c-.448.561-.948 1.071-1.453 1.58l-.185.186a15 15 0 0 1-1.283 1.131l-.144.115a20 20 0 0 1-2.264 1.557l-.146.088c-2.372 1.411-5.05 2.203-7.76 2.638l-.249.04c-1.363.207-2.721.267-4.099.265q-.391 0-.782.003c-3.481.009-6.926-.682-10.108-2.098l-.157-.069c-2.241-.986-4.189-2.448-5.997-4.079.029.765.069 1.525.157 2.285.115 1.037.058 2.18-.571 3.054-.48.571-1.125.857-1.848.999a7 7 0 0 1-.28.017l-.206.01c-1.025.028-1.973-.149-2.754-.847-.781-.848-.965-1.997-.935-3.111.012-.261.043-.518.076-.777.085-.689.136-1.38.186-2.072l.031-.409.143-1.935.092-1.242c.233-3.144.021-6.147-.345-9.272-.164-1.409-.326-2.81-.323-4.231q0-.255-.003-.51c-.005-1.14.152-2.337.981-3.203.902-.768 1.941-.84 3.076-.781a3.1 3.1 0 0 1 1.052.283l.169.076c.755.379 1.159 1.012 1.444 1.784.191.683.209 1.334.201 2.038l-.004.55-.011 1.562c-.039 4.382.708 8.316 3.82 11.585l.124.133c2.484 2.579 6.17 3.753 9.642 4.082l.194.019a22 22 0 0 0 1.972.064h.181c2.733-.003 5.459-.397 7.954-1.555l.14-.064c1.276-.589 2.379-1.39 3.406-2.344l.13-.117c1.86-1.747 2.864-4.419 2.955-6.938q.008-.398.008-.796v-.143c-.004-2.656-.866-4.92-2.725-6.826-2.772-2.623-6.803-3.2-10.403-3.828l-2.014-.355-.198-.035c-12.299-2.185-12.299-2.185-16.384-6.046l-.174-.163a11 11 0 0 1-1.141-1.323l-.175-.23c-2.514-3.247-3.063-7.699-2.565-11.661.466-3.449 1.981-6.533 4.39-9.032l.108-.112c.473-.49.959-.941 1.497-1.359l.249-.199c1.622-1.286 3.434-2.226 5.37-2.945l.179-.067c2.585-.954 5.356-1.27 8.094-1.343m-273.692 1.629.187.027c.649.092 1.291.204 1.933.317 5.599.983 10.857.726 16.476-.027 5.305-.708 5.305-.708 6.797.346.562.471.783 1.083.876 1.793.074 1.023-.04 2.022-.696 2.848-.502.548-1.271.859-2.007.91q-.261.006-.522.001l-.194-.001a26 26 0 0 1-1.251-.045 37 37 0 0 0-1.726-.049l-.288-.003c-1.11-.017-2.295.1-3.184.834-.435.425-.602.906-.635 1.508.007.752.114 1.472.308 2.199l.054.201c.207.764.435 1.52.676 2.275l.074.239c.615 1.992 1.284 3.969 1.947 5.946l.321.952c.355 1.056.696 2.115 1.044 3.175.321 1.001.656 1.999.99 2.996.134.408.274.816.408 1.224l.047.134q.41 1.239.809 2.482.554 1.693 1.117 3.379a367 367 0 0 1 1.224 3.711q.554 1.693 1.117 3.379a364 364 0 0 1 1.224 3.697q.383 1.188.776 2.371l.047.145q.24.721.488 1.443.632 1.903 1.244 3.815c.12-.181.181-.31.241-.514l.067-.195.067-.213.074-.223c.074-.244.154-.488.227-.732q.089-.256.167-.512c.114-.35.221-.7.334-1.05.187-.596.381-1.191.569-1.786l.067-.203.261-.821.903-2.802.067-.224 1.044-3.254.074-.216c.294-.93.595-1.861.89-2.792l.054-.151.341-1.077.049-.155q.771-2.416 1.55-4.83l.993-3.092.066-.205.066-.205.13-.409.066-.205.692-2.16.215-.67.707-2.202.632-1.972.397-1.236c2.143-5.368 2.143-5.368 1.88-10.813-.427-.771-1.084-1.131-1.915-1.371-.978-.204-1.975-.052-2.947.1-.746.117-1.472.201-2.228.201l-.221.001c-.946-.015-1.822-.237-2.525-.896a2.3 2.3 0 0 1-.508-.811l-.06-.147c-.281-.817-.268-1.929.06-2.729l.054-.143c.294-.686.883-1.058 1.552-1.329.201-.064.395-.105.602-.134l.154-.022c.758-.091 1.522-.047 2.278.006l.252.018c.929.069 1.851.186 2.773.306l.704.09.423.054.413.053a154 154 0 0 0 2.147.26l.136.016q.41.047.821.088l.197.021c3.292.301 6.576-.165 9.824-.654l.156-.023q.356-.053.71-.108c1.456-.222 3.272-.46 4.55.424.569.468.897 1.086 1.02 1.812.079.927.097 1.909-.452 2.701a5 5 0 0 1-.217.242l-.114.125c-.612.601-1.444.759-2.27.763-.635-.007-1.266-.079-1.897-.147-1.115-.118-2.088-.136-3.01.597-.452.403-.726.943-1.003 1.472l-.066.125c-1.711 3.27-2.671 7.006-3.849 10.494a709 709 0 0 1-.8 2.338l-.056.161-.218.638-.705 2.069-1.06 3.111-.947 2.776-1.06 3.111-.947 2.776-1.06 3.111-.947 2.776-1.06 3.111-.947 2.776-1.123 3.292q-.301.88-.6 1.761l-.63 1.848-.242.71-.29.844-.106.308c-.583 1.712-1.466 3.463-3.152 4.315a7 7 0 0 1-.274.125l-.12.056c-.749.317-1.539.39-2.348.383l-.268-.001c-.662-.011-1.258-.081-1.886-.295l-.214-.071c-1.485-.552-2.482-1.764-3.137-3.156-.321-.71-.562-1.453-.823-2.187l-.174-.503-.361-1.021-.602-1.706-.074-.193-.207-.586q-.534-1.515-1.077-3.028c-.488-1.378-.983-2.757-1.472-4.136q-.725-2.055-1.458-4.109-.612-1.69-1.204-3.382a564 564 0 0 0-1.151-3.224c-.488-1.378-.983-2.757-1.472-4.136q-.725-2.055-1.458-4.109-.612-1.69-1.204-3.382c-.408-1.153-.823-2.306-1.231-3.457q-.502-1.383-.983-2.768c-1.351-5.111-1.351-5.111-4.442-8.964l-.147-.077c-.756-.369-1.626-.471-2.462-.47h-.174c-.669.005-1.331.05-1.987.098-1.405.098-2.816.159-3.987-.738-.549-.52-.803-1.252-.836-1.999v-.587c.02-.862.254-1.573.836-2.222 1.09-1.026 2.843-.941 4.228-.743m463.281-.733.334.027q.817.066 1.63.144l.148.014q.342.032.684.068c1.049.102 2.057.068 3.101-.054.843-.096 1.683-.18 2.531-.187l.201-.003c.6.005 1.205.16 1.648.585.782.908.852 2.068.848 3.21l.001.248q-.002.726-.04 1.451a65 65 0 0 0-.062 1.705l-.007.261-.011.41c-.063 2.503-.16 5.005-.264 7.507l-.009.211-.041.976-.037.931-.017.414c-.072 1.698-.069 3.397-.07 5.096l-.001 1.016-.001 3.145v.991c0 4.819.009 9.637.074 14.456l.006.5c.011 4.808.011 4.808.364 9.597l.022.188c.095.719.237 1.541.813 2.039.525.348 1.038.381 1.653.378h.222a11 11 0 0 0 1.763-.171c1.303-.218 2.817-.295 3.962.464.555.447.854 1.071.951 1.771.082.935.006 1.834-.585 2.598-.659.756-1.686 1.01-2.651 1.09q-.37.013-.74.009h-.135c-1.021-.004-2.028-.122-3.041-.249-1.604-.2-3.314-.239-4.897.128-.435.094-.856.116-1.3.121l-.194.004c-.58-.002-1.147-.158-1.58-.563-.559-.701-.738-1.518-.727-2.396l.001-.177.004-.552.001-.378.007-.918-.117.145c-.288.355-.578.705-.89 1.038l-.104.111-.294.311-.145.153c-2.606 2.686-6.375 3.985-10.024 4.329l-.149.014c-2.713.246-5.546-.002-8.146-.817l-.183-.056c-1.965-.611-3.847-1.574-5.437-2.887l-.106-.087c-1.195-.981-2.284-2.046-3.22-3.28a20 20 0 0 0-.252-.319c-2.579-3.243-3.91-7.363-4.5-11.412l-.02-.138c-.238-1.626-.29-3.251-.285-4.891l.001-.3c.003-1.449.023-2.886.221-4.324l.019-.147c.652-4.839 2.357-9.433 5.667-13.098l.2-.225c3.158-3.518 7.642-5.399 12.315-5.716a31 31 0 0 1 1.533-.026h.175c4.312.01 8.237 1.367 11.304 4.447.532.546.978 1.144 1.41 1.769l.29.419.01-6.556.003-1.814.001-.959c.152-3.113.152-3.113-1.016-5.874-.527-.489-1.102-.607-1.806-.602-.625.028-1.249.172-1.864.285-1.46.266-3.066.465-4.359-.427a2.35 2.35 0 0 1-.87-1.514c-.072-.959-.05-1.846.602-2.609.758-.71 1.696-.977 2.709-1.087l.149-.016c.875-.082 1.743-.019 2.615.054M343.593 3.663c-.7.77-1.285 1.615-1.793 2.521l-.074.13c-1.889 3.307-2.414 7.261-2.413 11.011l-.003.761c-.003 1.373.067 2.735.27 4.094l.035.235a25 25 0 0 0 .446 2.231l.05.202a18.5 18.5 0 0 0 1.622 4.213l.099.193c.556 1.064 1.289 2.01 2.109 2.884l.099.107c2.067 2.219 5.024 3.418 8.032 3.567l.231.006.138.004c3.019.08 6.237-.686 8.512-2.78l.381-.368.189-.179c2.343-2.261 3.101-5.372 3.356-8.517l.02-.247c.787-9.151.787-9.151-1.626-17.815l-.072-.13a9 9 0 0 0-1.132-1.609l-.143-.168c-2.065-2.37-5.109-3.769-8.22-4.033-3.798-.25-7.475.866-10.112 3.687m-493.457-24.166.261.022.676.058.689.059 1.003.086.221.019c.14.013.281.025.415.039.95.09 1.86.041 2.803-.068.843-.096 1.686-.18 2.535-.187l.201-.003c.629.005 1.238.177 1.699.62.696.866.829 1.952.809 3.029v.292c-.033 3.276-.201 6.554-.328 9.827l-.06 1.514-.007.221q-.021.634-.054 1.268c-.154 3.385-.127 6.774-.12 10.162V8.02c0 4.533.02 9.066.08 13.598v.172c.027 2.016.054 4.032.1 6.048q.009.073.007.15c-.127 3.374-.127 3.374.997 6.328.515.491 1.11.53 1.793.522l.234-.001c.582-.009 1.151-.07 1.726-.174 1.311-.234 2.823-.281 3.974.485.575.499.856 1.126.937 1.873.06.911-.033 1.733-.602 2.475-.662.729-1.612 1.021-2.569 1.086-1.278.053-2.535-.053-3.8-.218-1.666-.217-3.452-.269-5.097.111-.99.212-2.067.24-2.937-.318-.863-.925-.89-2.108-.863-3.303v-.362c.007-.292.007-.583.013-.875l-.12.149-.161.198-.161.195c-2.81 3.396-6.797 5.128-11.131 5.545l-.14.014c-4.984.487-10.168-.8-14.061-4.002a18 18 0 0 1-.736-.664q-.221-.2-.441-.387c-.649-.563-1.217-1.243-1.746-1.919l-.087-.117a22.4 22.4 0 0 1-2.121-3.294l-.067-.134a18 18 0 0 1-.468-.936l-.067-.148c-1.358-2.915-2-6.098-2.274-9.284l-.02-.208c-.074-.926-.06-1.857-.06-2.786v-.14c0-1.462.027-2.907.214-4.359l.02-.138c.248-1.917.642-3.779 1.251-5.615l.067-.191a20.8 20.8 0 0 1 4.502-7.574q.252-.272.495-.551c.214-.234.428-.448.669-.651q.182-.153.355-.31c3.412-3.016 7.887-4.322 12.376-4.315h.174c4.395.01 8.255 1.409 11.385 4.527.508.52.937 1.099 1.365 1.688l.147.2.107.152q.009-2.268.007-4.536c0-.702.007-1.404.007-2.107v-3.727c0-.111.007-.222.007-.333a18 18 0 0 0-.08-1.783l-.013-.165c-.107-.967-.368-2.006-1.131-2.668-1.084-.682-2.288-.35-3.465-.132-1.472.268-3.05.454-4.362-.425-.321-.249-.502-.545-.669-.914l-.067-.142c-.268-.73-.241-1.709.047-2.428.421-.817 1.11-1.227 1.96-1.51 1.244-.318 2.495-.309 3.759-.197m-16.71 23.393a9 9 0 0 1-.408.359c-.261.22-.475.467-.689.727l-.161.198a14.4 14.4 0 0 0-1.913 3.08l-.114.241c-1.064 2.273-1.559 4.829-1.759 7.318l-.013.216c-.067.85-.067 1.7-.067 2.552v.235c.007 1.101.013 2.191.147 3.285l.027.227c.475 4.036 1.739 7.96 4.589 10.944l.181.19c2.234 2.306 5.378 3.306 8.529 3.371 3.244.025 6.315-.975 8.656-3.264l.161-.163.114-.104c3.044-2.864 3.211-7.438 3.338-11.328.475-8.98.475-8.98-3.519-17.4l-.107-.12c-2.04-2.153-5.204-3.38-8.128-3.501-3.238-.076-6.442.662-8.864 2.936m-87.244-23.39.455.04 1.124.1c.321.029.635.058.957.085l.441.04c.863.078 1.733.11 2.596.003l.328-.037.167-.019c.843-.096 1.686-.18 2.535-.187l.201-.003c.629.005 1.238.177 1.699.62.729.904.823 2.028.809 3.147v.304c-.013 1.22-.054 2.44-.094 3.658l-.02.6c-.08 2.485-.181 4.97-.281 7.454l-.02.407c-.007.246-.02.492-.027.739l-.04.898c0 .141-.007.283-.013.424-.067 1.617-.067 3.232-.067 4.85 0 .304-.007.608-.007.913v3.731c0 4.625.013 9.25.074 13.874l.007.525c.027 2.003.054 4.006.1 6.009l.007.154c.033 1.438.094 2.879.261 4.308l.02.193c.107.835.248 1.65.95 2.192.475.317 1.01.323 1.559.316l.234-.001c.582-.009 1.151-.07 1.726-.174 1.318-.235 2.823-.279 3.974.485.549.459.85 1.102.937 1.806.054.944-.013 1.76-.602 2.542-.642.71-1.612 1.029-2.549 1.082-.261.005-.515.008-.776.009l-.14.001c-1.023.002-2.027-.11-3.037-.242-1.626-.208-3.365-.24-4.964.128-.843.181-1.953.28-2.716-.176-.649-.467-.896-1.155-1.044-1.916-.074-.505-.054-1.02-.04-1.529v-.362c.007-.292.007-.583.013-.875l-.1.132c-2.743 3.451-6.556 5.384-10.911 5.896q-.281.031-.562.059l-.14.015c-4.99.481-10.168-.799-14.061-4.003-.254-.21-.488-.43-.729-.653-.174-.167-.361-.328-.542-.489a7 7 0 0 1-.662-.686c-.127-.149-.261-.291-.395-.435-3.592-3.996-5.238-9.358-5.679-14.621l-.02-.225c-.067-.921-.06-1.845-.06-2.768V17.7c0-1.464.033-2.911.214-4.364l.02-.137c.421-3.442 1.378-6.918 3.191-9.897l.087-.14a22.4 22.4 0 0 1 2.455-3.272l.201-.224c.294-.33.595-.645.937-.93.161-.138.314-.285.468-.431 3.766-3.417 8.91-4.509 13.861-4.296 3.592.193 6.95 1.512 9.553 4.007l.107.102c.676.641 1.231 1.337 1.779 2.087l.147.2.107.152q.009-2.283.007-4.566c0-.707.007-1.413.007-2.12V-9.88c0-.112.007-.224.007-.336.007-1.391.013-3.206-.963-4.307-.555-.52-1.11-.664-1.86-.658-.629.028-1.251.172-1.866.285-1.539.28-3.084.433-4.442-.481-.635-.645-.823-1.424-.816-2.301.027-.734.234-1.379.763-1.901 1.391-1.169 3.458-1.086 5.164-.929m-16.797 23.476a4 4 0 0 1-.314.266c-.241.197-.428.426-.629.666l-.087.102c-2.395 2.841-3.472 6.488-3.86 10.133l-.02.19c-.495 4.609-.127 9.852 1.96 14.059l.087.169a15 15 0 0 0 2.522 3.644l.161.175c2.221 2.318 5.325 3.351 8.476 3.45 3.298.064 6.435-.965 8.843-3.243.288-.288.535-.596.783-.917l.147-.185c2.087-2.674 2.475-6.046 2.589-9.334l.02-.395c.582-9.38.582-9.38-3.345-18.028l-.147-.154-.107-.12c-2.121-2.237-5.358-3.41-8.375-3.511-3.224-.063-6.315.797-8.703 3.033m534.16-23.562a2.16 2.16 0 0 1 1.461.479c.65.67.623 1.557.627 2.43l.001.171c.002 1.175-.085 2.342-.181 3.512l-.035.423-.07.852c-.359 4.438-.426 8.899-.477 13.349l.147-.19.197-.252.097-.124c.272-.348.563-.672.864-.994a14 14 0 0 0 .405-.455 13.3 13.3 0 0 1 3.642-2.935l.127-.069c2.331-1.261 4.976-1.618 7.595-1.62h.182c3.213.004 6.306.64 9.154 2.157l.13.068c1.131.592 2.134 1.355 3.081 2.207l.112.1a17 17 0 0 1 2.229 2.442l.09.117c3.456 4.498 4.612 10.244 4.606 15.813v.203c-.005 3.343-.381 6.681-1.351 9.889l-.061.201c-1.185 3.857-3.372 7.617-6.495 10.234l-.102.086c-4.111 3.43-9.45 4.628-14.717 4.194-2.84-.264-5.576-1.131-7.858-2.875l-.189-.14c-1.108-.858-2.015-1.917-2.806-3.064l-.083-.12-.2-.289.025.182.09.682.039.292c.161 1.191.282 2.475-.421 3.527-.553.699-1.278.95-2.141 1.07-.91.066-1.739-.078-2.482-.642-.767-.716-1.084-1.817-1.138-2.84a25 25 0 0 1-.006-.979l.001-.5c.005-2.451.092-4.901.191-7.35q.183-4.516.275-9.034.018-.922.042-1.843c.035-1.389.044-2.777.043-4.166v-.436a832 832 0 0 0-.027-5.912l-.011-1.419-.021-2.693-.017-2.279-.023-3.126-.007-.974a640 640 0 0 0-.056-5.367l-.007-.475c-.015-1.196-.043-2.408-.292-3.583l-.034-.166c-.172-.785-.44-1.511-1.116-1.987-.567-.356-1.25-.303-1.881-.189l-.388.065-.201.034c-3.487.59-3.487.59-4.75-.183-.538-.395-.807-.854-.98-1.496-.138-.945-.118-1.987.45-2.789.587-.678 1.329-.951 2.199-1.079.34-.022.68-.026 1.02-.029l.155-.001c1.292-.006 2.562.169 3.84.338 1.156.152 2.277.206 3.44.082l.249-.026c.724-.08 1.442-.191 2.159-.315.553-.094 1.098-.15 1.657-.193m4.505 24.804c-2.842 3.128-3.12 7.468-3.122 11.497l-.001.387v.807l-.001.81c-.007 2.148.031 4.289.268 6.425l.017.156c.352 3.227 1.179 6.291 3.541 8.64l.179.179c2.215 2.11 5.378 2.774 8.348 2.704 2.931-.108 5.665-1.104 7.795-3.15l.098-.092c3.652-3.426 4.88-8.729 5.053-13.555.139-4.737-.407-10.041-3.278-13.981l-.089-.124a15.6 15.6 0 0 0-1.45-1.749l-.164-.175c-1.925-1.999-4.678-2.969-7.41-3.052-3.831-.072-7.16 1.515-9.785 4.271m263.68-10.212h.187c4.393.008 9.011.888 12.234 4.093l.099.098c2.551 2.564 3.532 6.263 3.72 9.783l.009.157c.059 1.09.072 2.178.072 3.269l.001.804.002 1.384q0 1.003.003 2.006.004 1.729.006 3.459l.004 2.957.001.197.006 3.256.003 1.999.002 1.369.001.787c-.074 3.005-.074 3.005 1.262 5.591.589.517 1.301.645 2.062.631.642-.055 1.196-.291 1.646-.757 1.04-1.313 1.155-3.07 1.16-4.678l.003-.583.009-1.446q.003-.614.008-1.227l.002-.569c.013-2.079.013-2.079.72-2.932l.171-.138.102-.086c.527-.42 1.146-.485 1.801-.478l.205.002c.767.017 1.357.209 1.906.763.884 1.066.963 2.551.949 3.876l-.002.293q-.002.425-.008.85l-.007.652-.017 1.242-.007.492a41 41 0 0 1-.101 2.569l-.015.211c-.181 2.211-.989 4.269-2.699 5.741-1.563 1.212-3.608 1.733-5.563 1.751l-.182.002c-2.489.021-2.489.021-3.721-.286l-.154-.036a8.1 8.1 0 0 1-3.191-1.57l-.17-.135c-1.189-1.003-1.919-2.428-2.375-3.888-.045-.182-.045-.182-.13-.258l-.091.13c-.901 1.266-1.974 2.457-3.254 3.348l-.113.08c-2.524 1.788-5.517 2.68-8.583 2.93l-.253.022c-4.604.341-9.818-.371-13.461-3.434a25 25 0 0 1-.517-.463q-.212-.194-.432-.378c-2.029-1.778-3.137-4.625-3.399-7.254l-.022-.203c-.305-3.19.355-6.644 2.43-9.162a23 23 0 0 1 .469-.523 7 7 0 0 0 .304-.359c.213-.246.448-.45.698-.656l.203-.167a17 17 0 0 1 5.149-2.843l.157-.054c2.549-.848 5.362-1.022 8.012-1.352 5.566-.409 5.566-.409 10.428-2.742l.126-.107c.985-.892 1.374-2.356 1.48-3.639.096-2.27-.248-4.261-1.824-5.986-1.749-1.819-4.267-2.662-6.755-2.723-3.109-.059-6.309.502-8.813 2.488l-.122.091c-.34.263-.635.627-.748 1.046-.035.315-.045.459.117.732.183.194.399.338.615.493.703.515 1.076 1.266 1.208 2.12.106 1.397-.013 2.522-.945 3.616-.878.935-1.957 1.435-3.237 1.487-1.63.038-3.071-.376-4.279-1.517-1.045-1.024-1.568-2.44-1.589-3.888-.009-2.893 1.148-5.286 3.16-7.324 3.618-3.619 8.878-5.036 13.868-5.03m8.856 23.653c-3.145 2.539-7.015 2.879-10.899 3.293-3.337.356-7.163.86-9.484 3.571-.85 1.071-1.271 2.314-1.338 3.679l-.008.152c-.054 1.957.65 3.715 1.985 5.133 1.919 1.868 4.787 2.372 7.362 2.357 3.46-.059 6.897-.987 9.391-3.494l.189-.189c3.773-3.946 3.171-9.695 3.155-14.729-.144 0-.248.141-.355.228M-210.063-6.007h.187c4.174.005 8.837.76 11.941 3.802q.149.148.308.292c.896.844 1.572 1.857 2.127 2.947l.074.134c1.432 2.802 1.686 5.962 1.686 9.056v.801q.009.692.007 1.383v2.006q.009 1.73.007 3.459l.007.197v2.956a504 504 0 0 1 .007 3.252q.009.999.007 1.998v1.371q-.002.394.007.788c0 .955 0 1.91.04 2.864l.007.209c.054 1.286.248 2.666 1.164 3.643.702.589 1.445.722 2.341.669.662-.108 1.211-.464 1.632-.978.95-1.393.983-3.24.99-4.867 0-.194.007-.387.007-.581 0-.55.007-1.1.007-1.65 0-.338.007-.676.007-1.014v-.383c.007-1.008.033-1.964.743-2.756.595-.548 1.278-.628 2.047-.635l.201-.006c.676-.006 1.278.199 1.773.67.93.981 1.037 2.267 1.037 3.551v1.065q-.009.24-.007.48c0 1.237 0 2.474-.033 3.71v.153c-.02.967-.087 1.942-.321 2.882l-.047.177c-.448 1.77-1.405 3.421-2.997 4.395a9 9 0 0 1-.355.203l-.221.127c-1.338.721-2.93 1.016-4.442 1.024l-.181.001-.375.001-.562.005c-2.489.015-4.85-.676-6.676-2.412-1.03-1.071-1.592-2.371-2.06-3.763l-.114.157c-.836 1.105-1.726 2.136-2.83 2.987l-.107.086c-.682.531-1.405.977-2.167 1.386l-.147.08c-2.074 1.097-4.422 1.579-6.743 1.793l-.147.014c-.328.03-.656.044-.99.053l-.207.006c-4.85.107-9.706-.921-13.305-4.354l-.161-.15c-1.532-1.47-2.489-3.501-2.97-5.545l-.04-.166c-.214-.982-.268-1.98-.261-2.982v-.162c.013-3.244 1.037-6.168 3.298-8.521l.127-.138c3.759-4.018 9.78-4.376 14.877-4.986 5.505-.425 5.505-.425 10.034-3.077a5.8 5.8 0 0 0 .85-1.699l.06-.186c.569-1.984.355-4.347-.629-6.16-1.177-1.95-3.124-3.076-5.285-3.648-.448-.11-.91-.184-1.371-.242l-.14-.019c-.582-.07-1.164-.064-1.753-.064h-.174c-.863.001-1.699.034-2.549.218l-.161.035c-1.258.272-2.455.689-3.586 1.303l-.14.075c-.91.489-1.866 1.011-2.228 2.045-.054.223-.06.342.027.556.214.266.468.471.743.669.702.516 1.003 1.235 1.164 2.077.167 1.284-.02 2.439-.816 3.492-.729.859-1.826 1.493-2.963 1.589-1.599.102-3.084-.123-4.335-1.201l-.147-.137-.154-.135c-1.077-1.005-1.579-2.406-1.652-3.86-.033-2.676.977-5.051 2.81-6.977l.114-.115a13.4 13.4 0 0 1 1.826-1.624l.114-.08a19 19 0 0 1 1.759-1.124l.127-.073c1.385-.792 2.883-1.336 4.422-1.733l.181-.048c1.84-.482 3.759-.637 5.659-.638m8.977 23.585c-3.137 2.805-7.566 2.992-11.539 3.428-2.769.305-5.827.773-8.027 2.639l-.174.148a5.88 5.88 0 0 0-2.034 3.933c-.12 2.033.294 3.871 1.646 5.446 1.646 1.851 4.221 2.479 6.596 2.638 2.729.153 5.532-.297 7.947-1.595l.127-.064c1.559-.824 2.89-2.115 3.82-3.615l.087-.135c1.599-2.611 1.793-5.574 1.826-8.56q.009-.276.007-.553.03-1.965.02-3.93c-.127 0-.221.14-.301.222m175.779-23.59h.19c4.499.005 9.13.944 12.428 4.218 3.039 3.194 3.722 7.669 3.715 11.906l.001.792q.002.682.002 1.365l.003 1.98.005 3.223.009 5.406v.187l.001.742q.003 1.078.003 2.155l.002 1.353.001.777c-.213 3.72-.213 3.72 1.162 7.013.636.57 1.393.752 2.23.732.727-.075 1.299-.425 1.767-.974.981-1.354 1.023-3.207 1.025-4.814l.003-.582q.006-.826.007-1.651l.006-1.018.001-.384c0-1.031.019-2.013.738-2.83.569-.538 1.296-.629 2.042-.636l.202-.006c.69-.006 1.288.206 1.794.687.76.796 1.014 1.895 1.014 2.973v2.48c.001 1.101-.003 2.201-.031 3.302l-.007.29c-.02.897-.087 1.804-.293 2.68l-.035.151c-.29 1.209-.752 2.314-1.583 3.253l-.107.136c-1.109 1.376-2.952 2.055-4.643 2.34l-.209.036c-.686.105-1.362.121-2.054.119q-.284 0-.569.003c-2.464.009-4.825-.661-6.642-2.378-1.026-1.073-1.644-2.401-2.099-3.801l-.118.157c-.88 1.163-1.814 2.228-2.984 3.106l-.292.223c-1.926 1.456-4.28 2.315-6.641 2.735l-.165.03c-4.857.878-10.569.303-14.725-2.53a16 16 0 0 1-1.633-1.313l-.191-.174c-1.813-1.731-2.865-4.074-3.288-6.515l-.024-.135c-.268-1.588-.21-3.372.091-4.949l.033-.178c.614-3.107 2.405-5.6 5-7.369 2.687-1.784 5.491-2.528 8.645-2.958l.411-.057c1.287-.18 2.575-.344 3.866-.501 5.54-.432 5.54-.432 10.158-3.094 1.167-1.606 1.375-3.694 1.102-5.62-.198-1.229-.666-2.334-1.455-3.302l-.132-.165c-1.272-1.504-3.124-2.326-5.018-2.711l-.161-.033c-1.682-.333-3.649-.331-5.325.033l-.163.034c-1.878.398-4.519 1.237-5.703 2.864-.176.295-.288.566-.288.915.149.396.555.657.876.916.705.584 1.017 1.325 1.131 2.228.071 1.28-.063 2.373-.916 3.395-.943.989-2.109 1.48-3.46 1.512-1.624.013-2.97-.441-4.17-1.575-1.072-1.123-1.516-2.483-1.513-4.018v-.133c.011-2.572 1.064-4.832 2.834-6.674l.099-.105a13 13 0 0 1 1.975-1.701l.126-.09c3.492-2.468 7.699-3.47 11.932-3.472m8.981 23.58c-3.045 2.718-7.247 2.968-11.119 3.386-2.098.224-2.098.224-4.158.669l-.192.052c-2.163.594-4.376 1.617-5.546 3.632-.877 1.591-.995 3.565-.519 5.302.529 1.788 1.683 3.101 3.299 3.992 3.153 1.678 7.202 1.503 10.544.527a10.9 10.9 0 0 0 3.643-1.924l.114-.093c2.413-1.97 3.744-4.803 4.073-7.875.1-1.044.124-2.085.136-3.133l.007-.529q.03-2.112.017-4.224c-.125 0-.215.136-.301.217m239.208-23.58h.19c4.127.005 8.712.74 11.82 3.689a5 5 0 0 0 .366.316c2.666 2.303 3.642 6.263 3.899 9.623.033.48.041.958.041 1.439l.001.271.002.736.002.797.003 1.379.005 2 .011 4.631.005 1.962.008 3.238.005 1.991.003 1.368.002.786c.001.982.008 1.964.041 2.946l.008.227c.045 1.213.201 2.504.967 3.49l.117.18c.532.547 1.248.761 1.994.782.767-.021 1.377-.276 1.911-.828 1.126-1.336 1.136-3.332 1.142-4.988l.003-.588q.006-.834.01-1.669.002-.513.007-1.026l.002-.388c.002-1.017.033-1.964.74-2.768.57-.538 1.296-.628 2.043-.635l.201-.006c.69-.006 1.288.206 1.795.687.755.791 1.013 1.886 1.014 2.958l.001.136-.001.445.001.318-.001.669.001.833c.001 1.164-.008 2.327-.038 3.49l-.003.155c-.021.845-.081 1.678-.235 2.51l-.027.146a7.8 7.8 0 0 1-1.646 3.466l-.103.133c-1.116 1.376-2.95 2.057-4.647 2.342l-.209.036c-.686.105-1.362.121-2.054.119q-.284 0-.569.003c-2.464.009-4.825-.661-6.642-2.378-1.052-1.098-1.615-2.381-2.099-3.801l-.118.157c-.836 1.104-1.724 2.137-2.826 2.987l-.112.087c-2.633 2.03-5.776 2.956-9.053 3.258l-.149.014c-4.675.428-9.896-.442-13.603-3.486q-.494-.426-.965-.876l-.113-.108a8 8 0 0 1-.786-.904l-.114-.152c-1.172-1.569-1.865-3.336-2.198-5.258l-.024-.135c-.529-3.138.032-6.76 1.889-9.381a12.7 12.7 0 0 1 2.684-2.726l.169-.127c.52-.377 1.08-.694 1.638-1.01l.136-.078c1.197-.677 2.47-1.216 3.81-1.528l.156-.038c2.227-.54 4.539-.753 6.811-1.027 5.953-.411 5.953-.411 10.913-3.192.65-.894.986-1.873 1.118-2.968l.023-.175c.216-1.969-.143-4.073-1.377-5.665-1.327-1.642-3.229-2.577-5.268-2.989l-.148-.031c-1.689-.331-3.654-.335-5.338.031l-.163.034c-1.878.398-4.519 1.237-5.703 2.864-.176.295-.288.566-.288.915.148.395.554.659.876.913.705.575 1.033 1.406 1.131 2.298.073 1.246-.09 2.337-.916 3.328-.951.997-2.118 1.477-3.478 1.515-1.482.016-2.79-.345-3.901-1.365l-.153-.135a5.17 5.17 0 0 1-1.601-3.368 23 23 0 0 1-.01-.766V5.99c.012-2.85 1.351-5.174 3.324-7.145.492-.48 1.023-.895 1.584-1.292l.125-.089c3.491-2.469 7.7-3.47 11.933-3.473m8.981 23.58c-3.053 2.726-7.307 2.983-11.191 3.399-3.283.352-6.95.903-9.262 3.516a6.1 6.1 0 0 0-1.187 2.433l-.045.195c-.351 1.847-.009 3.863 1.049 5.424 1.317 1.801 3.383 2.739 5.536 3.105 3.577.521 7.675.061 10.661-2.122a26 26 0 0 0 .393-.314l.114-.093c2.398-1.958 3.759-4.808 4.069-7.87.101-1.096.126-2.188.14-3.288l.005-.411q.032-2.096.019-4.192c-.125 0-.215.136-.301.217M-339.645-6.007h.167c4.683.006 9.278 1.884 12.65 5.138.294.304.555.633.816.966l.161.206c1.318 1.736 1.94 3.841 2.268 5.969l.027.196c.214 1.516.241 3.044.241 4.573q-.002.399.007.797v3.365q.009 1.715.007 3.431l.007.195c0 2.055.007 4.11.007 6.164q.009.992.007 1.984v1.36q-.002.391.007.782c-.107 2.939-.107 2.939 1.144 5.496.154.112.154.112.308.188l.147.081c1.01.452 2.502.038 3.539-.129 1.017-.16 1.86-.22 2.776.32l.187.142.114.08c.569.442.916 1.085 1.023 1.793.087.864-.181 1.639-.716 2.316a3.7 3.7 0 0 1-2.428 1.177c-.234.008-.475.011-.709.01h-.134c-1.104-.003-2.201-.128-3.298-.254-.522-.06-1.05-.114-1.572-.168l-.488-.051c-1.298-.136-2.582-.171-3.893-.171h-.134c-1.418 0-2.81.045-4.221.217l-.401.049-.221.026-.696.082c-.301.036-.595.073-.896.111-3.285.408-3.285.408-4.556-.509-.635-.522-.863-1.17-.99-1.967-.067-.764-.027-1.638.435-2.285.589-.691 1.211-.946 2.101-1.042 1.003-.074 1.973.111 2.95.311 1.104.242 1.104.242 2.161-.036.99-.785 1.197-2.128 1.338-3.312.094-.86.114-1.727.147-2.591.007-.196.013-.391.027-.587q.042-1.016.074-2.03l.007-.158c.094-2.876.074-5.756.074-8.633v-3.374c0-.329.007-.658.007-.986.007-3.825-.013-7.661-2.803-10.596-2.114-2.061-5.151-2.93-8.041-2.903-3.318.075-6.302 1.037-8.67 3.4-2.482 2.624-3.017 6.486-3.251 9.939l-.013.245c-.06.854-.06 1.706-.06 2.562v1.747l-.007.799v10.666c-.1 3.023-.1 3.023 1.09 5.681.462.383 1.017.472 1.599.443.207-.028.415-.069.615-.113l.174-.036q.743-.157 1.485-.342c.997-.246 2.161-.359 3.097.165.609.425.957.971 1.097 1.693.174 1.098.127 2.124-.549 3.055-.562.621-1.432.866-2.241.951q-.293.013-.595.01l-.234-.001c-1.05-.019-2.101-.168-3.144-.305l-.997-.128-.776-.1a27 27 0 0 0-2.816-.207l-.348-.011c-1.933-.07-3.867.131-5.786.338l-.743.078c-1.003.105-1.003.105-2.007.215-3.318.374-3.318.374-4.629-.579a2.83 2.83 0 0 1-.937-1.739c-.06-1.056-.02-2.031.709-2.864.562-.53 1.358-.669 2.101-.686.702.029 1.391.19 2.074.329.582.115 1.144.16 1.739.165l.207.006c.656.005 1.131-.177 1.612-.627 1.164-1.28 1.131-3.394 1.157-5.013l.007-.398q.018-.526.027-1.052l.02-1.027c.013-.633.027-1.266.033-1.899q.018-.633.027-1.266c.06-2.644.067-5.287.074-7.931v-1.741c.515-6.679.515-6.679-1.425-12.654-.555-.501-1.217-.522-1.94-.486-.401.036-.803.114-1.197.185-.689.122-1.358.2-2.06.201l-.214.001c-.836-.013-1.599-.202-2.228-.773-.676-.705-.749-1.497-.736-2.427.02-.672.268-1.187.702-1.693.89-.772 1.933-.988 3.091-.991l.227-.001c.769.01 1.518.104 2.281.197 1.779.217 3.465.179 5.245-.009 2.422-.245 2.422-.245 3.492.419.85.844.796 2.05.809 3.161 0 .125.007.249.007.374q.012.453.013.905l.167-.196c.435-.505.876-1 1.345-1.468l.167-.165c.381-.376.769-.726 1.197-1.048l.281-.215a16.7 16.7 0 0 1 2.395-1.524l.174-.09c2.562-1.338 5.465-1.865 8.335-1.867m-98.917 0h.181c4.897.006 9.412 1.589 13.031 4.9.067.061.14.122.207.183.334.303.662.607.95.955.127.15.261.291.395.435 3.004 3.34 4.462 7.865 4.642 12.296l.007.205c.174 4.495.174 4.495-.615 5.464-.609.406-1.385.475-2.101.473h-.662l-.368.001-1.017.001-1.09.002-1.893.002-2.743.004-4.448.007h-.134l-3.111.004h-.134l-.676.001h-.402l-4.569.007-2.729.004q-.942 0-1.873.003l-1.084.001-.99.002h-.355c-1.084-.032-1.084-.032-2.034.42-.187.259-.227.443-.227.762v.526l.007.14c.02 3.157.903 6.426 2.763 9.008l.14.194c.91 1.241 1.953 2.383 3.204 3.284l.12.084c2.823 2.033 6.415 2.784 9.84 2.225a13.07 13.07 0 0 0 6.964-3.581l.174-.167c.341-.356.629-.738.903-1.146l.1-.136c.656-.99 1.003-2.1 1.351-3.225q.092-.314.194-.627l.12-.386c.615-1.999.615-1.999 1.559-2.507.903-.425 2.101-.467 3.057-.192.689.264 1.258.699 1.612 1.354.769 1.811.301 4.161-.375 5.936-.609 1.506-1.485 2.834-2.596 4.017q-.19.205-.368.42c-.341.39-.729.731-1.117 1.074l-.1.094c-4.428 3.928-10.335 5.556-16.162 5.227-5.224-.355-9.921-2.46-13.426-6.395q-.212-.26-.415-.531l-.214-.284a21 21 0 0 1-1.458-2.191l-.087-.152c-2.99-5.085-3.559-11.419-2.194-21.959.783-2.981 2.074-5.81 3.953-8.259l.094-.119a20 20 0 0 1 1.351-1.588c.14-.144.268-.293.395-.442.341-.382.722-.723 1.104-1.062l.107-.091c3.639-3.232 8.429-4.672 13.238-4.675m-7.994 8.847-.181.145a22 22 0 0 0-1.358 1.193l-.107.102a12.4 12.4 0 0 0-2.101 2.64l-.067.116c-.589.985-.95 2.1-1.137 3.229l-.027.153c-.127.922-.127.922.067 1.803.421.487.95.601 1.565.652.301.01.595.009.89.009h1.01l.803.001 1.565.001h1.271l3.612.001h.395l3.157.002 3.238.001 1.82.001h3.063l.388.001c.602-.002 1.284-.006 1.799-.352.455-.461.421-.827.421-1.444-.027-2.388-.97-4.8-2.562-6.584l-.134-.155c-2.107-2.414-4.936-4.158-8.194-4.385-3.365-.17-6.549.757-9.198 2.868M395.639-4.47l.167-.001c.656.006 1.215.213 1.7.662.823.853.841 2.002.835 3.116v.337l-.002.899-.002.562c-.01 4.77-.01 4.77-.127 6.983l-.056 1.112-.007.145c-.117 2.489-.11 4.98-.11 7.471l-.001.825c-.017 3.34-.017 3.34.155 6.673l.016.196q.043.522.105 1.042l.017.147c.31 2.671.801 5.384 2.738 7.379l.126.138c1.82 1.942 4.751 2.444 7.283 2.545 2.982.087 6.073-.601 8.445-2.482l.128-.102c2.757-2.218 3.507-5.422 3.876-8.799a60 60 0 0 0 .189-2.392l.012-.187c.2-3.085.159-6.187.162-9.277a1644 1644 0 0 1 .008-3.808l.002-.938c.042-2.996.042-2.996-1.034-5.737l-.112-.111c-.088-.089-.088-.089-.088-.223a5 5 0 0 0-.268-.134l-.225-.109c-.508-.186-1.085-.132-1.606-.025-1.244.232-2.847.196-3.922-.535-.547-.462-.775-1.042-.87-1.739-.062-.865.011-1.836.557-2.55.591-.663 1.361-1.01 2.248-1.078q.348-.012.695-.01h.132c.85 0 1.69.075 2.536.159 1.773.175 3.487.157 5.261-.019 2.286-.222 2.286-.222 3.155.487.648.607.838 1.319.882 2.187.011.684-.061 1.35-.146 2.028a56 56 0 0 0-.334 3.679l-.011.186c-.155 2.732-.133 5.476-.132 8.211V23.42c-.001 1.795.001 3.59.037 5.385l.003.19c.018.903.061 1.791.235 2.679l.03.157c.194.982.476 2.204 1.317 2.841.834.528 1.929.219 2.839.065 1.234-.209 2.569-.43 3.683.299.575.456.875 1.027 1.001 1.749.116 1.018-.003 1.932-.579 2.788-.594.662-1.537.956-2.402 1.012q-.367.009-.735.012l-.141.001c-1.06.004-2.104-.112-3.154-.242-1.409-.171-2.823-.203-4.214.123-.448.095-.884.116-1.342.121l-.201.004c-.599-.002-1.206-.15-1.684-.53-.828-.84-.74-2.117-.753-3.208l-.007-.403q-.008-.488-.014-.977l-.122.15-.162.198-.16.196c-.799.967-1.68 1.867-2.701 2.6l-.133.096c-2.526 1.803-5.487 2.723-8.563 2.981l-.236.022c-4.841.389-10.283-.404-14.079-3.635-2.716-2.353-4.114-5.585-4.4-9.135a31 31 0 0 1-.052-1.296l-.004-.158c-.037-1.438-.038-2.875-.041-4.313l-.004-1.508-.007-2.122-.001-.135-.005-1.89-.001-.134v-.134l-.007-2.244q-.003-.625-.003-1.249c-.003-1.553-.011-3.103-.086-4.654l-.008-.168c-.08-3.989-.08-3.989-1.603-7.517-.304-.275-.607-.352-1.015-.347-.4.026-.794.105-1.189.176-1.43.253-3.019.523-4.309-.335-.555-.449-.857-1.117-.933-1.821a10 10 0 0 1-.009-.579l.002-.206c.019-.771.186-1.264.732-1.824 1.109-.997 2.709-.957 4.112-.885.44.031.878.073 1.317.115 1.923.182 3.745.214 5.66-.063a12 12 0 0 1 1.709-.137M66.729-2.312l.117.088c.569.431 1.108.887 1.622 1.383l.146.141c.638.617 1.25 1.234 1.774 1.95q.137.184.281.365c3.493 4.478 4.569 10.375 4.572 15.923v.241c-.005 6.263-1.567 12.7-5.97 17.57l-.115.128a18.6 18.6 0 0 1-2.628 2.415l-.111.084c-3.011 2.268-6.604 3.385-10.325 3.729l-.154.015c-5.005.449-10.475-.66-14.429-3.894l-.185-.147c-1.012-.809-1.953-1.714-2.758-2.73l-.185-.222c-3.852-4.643-5.118-10.893-5.112-16.786v-.214c.002-1.155.03-2.299.146-3.449l.026-.259C33.94 9.217 35.49 4.558 38.633.832l.183-.221c.642-.767 1.325-1.491 2.112-2.112.193-.153.378-.313.565-.473.449-.375.927-.696 1.421-1.008l.125-.079c2.487-1.56 5.268-2.431 8.17-2.797l.186-.024c5.202-.638 11.106.331 15.333 3.57M45.619 3.214l-.272.26c-.46.442-.851.926-1.228 1.439l-.085.115c-2.215 3.061-3.011 6.898-3.327 10.588l-.015.167a22 22 0 0 0-.052 2.241l.004.228c.096 5.211 1.111 10.681 4.947 14.489.236.215.481.411.736.602l.106.08c2.015 1.525 4.459 2.328 6.985 2.395l.137.004c3.594.096 6.866-.968 9.502-3.426.343-.328.641-.684.931-1.06l.132-.159c2.305-2.782 3.321-6.473 3.681-10.009l.021-.207c.532-5.527.144-12.381-3.502-16.856C62.204 1.58 59.329.336 56.083.009c-3.793-.322-7.677.47-10.464 3.205m65.06-9.071.178.026c2.189.335 4.313 1.067 6.11 2.382l.116.085c2.674 1.973 4.419 4.691 4.929 7.984.401 2.885.011 5.931-1.721 8.333a6.56 6.56 0 0 1-4.394 2.529c-1.607.114-3.148-.08-4.418-1.153l-.13-.118-.138-.122c-.696-.651-1.173-1.537-1.215-2.499-.029-1.262.304-2.169 1.177-3.095.643-.62 1.392-.986 2.288-.986h.143c.395.004.772.055 1.157.146.482-1.209.612-2.378.151-3.619a6.4 6.4 0 0 0-1.154-1.799l-.107-.124c-1.363-1.475-3.481-2.225-5.445-2.351-2.642-.094-5.42.317-7.442 2.174l-.385.368-.143.128c-2.272 2.096-2.873 5.744-3.214 8.647l-.031.263c-.24 2.109-.244 4.219-.243 6.338l-.001 1.004v2.505l-.002 2.161q-.002 1.119-.001 2.238l-.001 1.249v1.6c-.007 1.898.04 4.623 1.424 6.114.472.438.892.568 1.524.56l.186-.001c.711-.016 1.383-.171 2.072-.334 1.157-.273 2.367-.445 3.462.159.568.381.875.941 1.031 1.599.166.969.088 1.978-.429 2.822-.544.751-1.324 1.068-2.22 1.212-.409.036-.819.032-1.229.029h-.175c-1.146-.004-2.273-.109-3.41-.242a56 56 0 0 0-1.53-.154l-.401-.037a36 36 0 0 0-3.335-.143h-.217a66 66 0 0 0-5.695.244l-.151.014q-.752.066-1.502.14c-.896.087-1.788.167-2.69.169l-.201.001c-.955-.01-1.801-.252-2.526-.897-.631-.677-.787-1.551-.769-2.444.056-.767.268-1.378.832-1.912.999-.794 2.433-.805 3.642-.673.43.05.852.131 1.276.217 1.306.308 1.306.308 2.576.017.753-.501 1.051-1.393 1.238-2.237.406-2.296.298-4.729.296-7.053v-.573a725 725 0 0 0-.096-10.111l-.027-2.065-.031-2.274-.013-.952-.015-1.112-.005-.403c-.009-1.702-.009-1.702-.178-3.394l-.026-.175c-.167-1.05-.429-2.426-1.327-3.106-.884-.548-1.826-.329-2.795-.143l-.453.084-.278.052c-1.118.21-2.448.328-3.458-.295-.559-.424-.861-.964-1.007-1.643-.078-1.084-.076-2.147.669-3.01 1.074-.996 2.541-.987 3.92-.95.691.026 1.378.125 2.064.216a18 18 0 0 0 2.412.145h.151c.929-.001 1.841-.044 2.755-.222.372-.066.74-.075 1.116-.079l.177-.004c.636.001 1.218.146 1.692.59.563.597.637 1.338.653 2.124l.004.173.012.544.009.371.021.905.134-.177.179-.234.088-.116c.246-.321.509-.618.784-.913q.194-.21.375-.429c2.092-2.388 5.189-3.793 8.274-4.285l.166-.027c1.583-.239 3.335-.206 4.918.027m-494.755 0 .181.026c2.308.353 4.509 1.157 6.375 2.583l.161.12c2.596 2.009 4.208 4.725 4.656 7.974.074.585.087 1.171.087 1.76v.142c-.007 2.577-.702 5.084-2.515 6.978-1.432 1.383-3.131 1.797-5.077 1.774a4.97 4.97 0 0 1-3.264-1.356l-.154-.145c-.789-.804-1.144-1.792-1.137-2.903.033-1.136.542-1.997 1.358-2.772.622-.52 1.304-.816 2.114-.815h.14c.395.004.776.055 1.157.146.589-1.415.555-2.594-.007-4-.729-1.581-2.315-2.735-3.907-3.344-2.509-.904-5.619-.799-8.061.305a8.6 8.6 0 0 0-2.341 1.62l-.134.124c-3.091 2.9-3.405 8.223-3.545 12.185q-.009.751-.007 1.504v1.618q.002.37-.007.74v9.872c-.007 1.958.007 4.849 1.492 6.357.609.519 1.251.507 2.02.46.515-.047 1.017-.167 1.518-.284 1.211-.275 2.468-.517 3.619.115.569.386.883.876 1.037 1.532.054.316.047.634.047.954l.007.208c0 .787-.214 1.484-.749 2.076-.89.832-2.02.907-3.184.898h-.174c-1.144-.004-2.268-.109-3.405-.242a59 59 0 0 0-1.532-.154l-.401-.037a36 36 0 0 0-3.338-.143h-.214c-1.906.004-3.8.075-5.693.244l-.154.014q-.753.067-1.505.14c-.896.087-1.786.167-2.689.169l-.201.001c-.957-.01-1.806-.251-2.529-.906-.609-.65-.769-1.558-.756-2.421.04-.702.268-1.413.789-1.906 1.07-.835 2.535-.827 3.82-.678.381.05.756.124 1.131.201 1.385.32 1.385.32 2.696-.062l.181-.109c.642-.659.87-1.589.997-2.474l.027-.184c.094-.691.12-1.382.147-2.078l.007-.208c.054-1.46.067-2.919.06-4.38v-.635c-.007-3.47-.047-6.94-.094-10.41-.007-.683-.02-1.367-.027-2.05-.007-.673-.013-1.346-.027-2.02-.007-.396-.007-.792-.013-1.188a58 58 0 0 1-.013-1.103q-.009-.2-.007-.399c-.02-1.885-.06-4.03-1.104-5.674l-.114-.188c-.508-.493-1.017-.635-1.699-.629-.482.027-.95.121-1.418.211l-.455.084-.274.052c-1.157.218-2.489.327-3.519-.351-.555-.431-.829-.967-.95-1.654-.067-.957-.094-1.985.555-2.758.756-.795 1.679-1.108 2.776-1.151q.23-.002.468 0l.254.001c.876.01 1.733.116 2.602.231.803.106 1.599.146 2.408.145h.154a16 16 0 0 0 2.79-.222c.89-.144 1.853-.176 2.662.259.549.452.823.982.916 1.689q.02.312.02.625l.007.178c.007.187.007.373.013.56l.007.381.02.931.147-.19.201-.252.094-.125c.274-.346.562-.669.863-.989q.23-.25.448-.506c.248-.276.508-.515.789-.748l.107-.088c3.438-2.854 7.867-3.904 12.268-3.257m860.903 3.333q.358.334.702.681l.151.141c.808.769 1.416 1.68 1.923 2.668l.064.124c1.444 2.808 1.589 6.411.651 9.397-.331.977-.824 1.954-1.518 2.72l-.136.165c-1.044 1.232-2.49 1.907-4.078 2.11-1.547.11-3.042-.045-4.271-1.076l-.144-.129-.167-.145c-.808-.751-1.238-1.685-1.305-2.787-.001-1.035.314-1.857 1.003-2.62l.12-.142c.52-.572 1.307-1.044 2.088-1.083q.141-.002.283-.001h.15c.411.007.783.081 1.171.221q.104-.3.201-.602l.058-.176c.365-1.244.13-2.503-.469-3.629a6 6 0 0 0-.593-.811l-.1-.13c-1.211-1.505-3.23-2.286-5.084-2.567-2.598-.274-5.521.105-7.621 1.775l-.306.252-.177.144c-.694.589-1.24 1.347-1.696 2.131l-.128.219c-1.666 2.929-1.935 6.586-2.086 9.89l-.009.185a86 86 0 0 0-.068 3.993l.001.968.001 1.62.002 1.852.001 2.006v.564c.001 1.214.006 2.427.04 3.64l.004.14c.046 1.709.171 4.059 1.439 5.358v.134l.116.058q.145.072.287.146c.373.182.677.24 1.089.231l.175-.002c.643-.018 1.254-.155 1.878-.299 1.274-.289 2.489-.492 3.695.151.545.345.793.852.987 1.455.209.96.133 2.103-.401 2.943-.468.691-1.258 1.018-2.055 1.173-.443.064-.893.058-1.34.061l-.172.001c-1.371.005-2.724-.149-4.085-.304-1.527-.174-3.049-.285-4.588-.275l-.611.001a63 63 0 0 0-5.275.242l-.526.044q-1.053.087-2.104.186c-3.161.298-3.161.298-4.448-.715-.575-.521-.794-1.258-.833-2.014-.016-.868.067-1.626.68-2.289.8-.766 1.92-.884 2.985-.871.787.034 1.544.162 2.315.319 1.22.267 1.22.267 2.386-.068.781-.584 1.049-1.524 1.213-2.448q.042-.337.07-.675l.017-.193c.157-1.868.193-3.751.191-5.625l-.001-.239c-.002-2.998-.054-5.996-.095-8.994l-.027-2.075-.031-2.284-.013-.955a411 411 0 0 0-.072-4.301l-.007-.338c-.036-1.697-.139-3.82-1.345-5.145-.457-.43-.94-.499-1.549-.493a8 8 0 0 0-.993.131l-.211.036a54 54 0 0 0-.944.172c-1.146.215-2.459.338-3.486-.33-.175-.151-.175-.151-.334-.334l-.102-.117c-.544-.663-.621-1.527-.567-2.358.127-.863.373-1.576 1.085-2.12 1.611-1.041 3.821-.651 5.62-.42.804.103 1.599.148 2.41.149h.15c.894.001 1.76-.08 2.643-.218.946-.141 2.066-.229 2.905.304.476.381.716.913.793 1.514.054.568.07 1.136.086 1.706l.009.299.021.725.118-.145c2.593-3.174 5.615-5.26 9.715-5.942l.159-.027c4.273-.685 9.102.409 12.317 3.359M19.764-20.166c.519.475.674 1.124.741 1.799.034.798-.029 1.584-.103 2.377-.242 2.621-.355 5.249-.441 7.88l-.008.233q-.03.943-.051 1.886l-.004.19c-.069 3.07-.073 6.14-.071 9.212l.001 1.262q.002 3.432.008 6.863v.147q.007 4.216.02 8.433l.002.657.006 2.45.008 2.811.004 1.45.004 1.342.001.485c-.069 2.781-.069 2.781 1.023 5.259.46.427.878.559 1.499.547.571-.046 1.131-.206 1.687-.336 1.205-.281 2.598-.479 3.706.207.61.438.891 1.011 1.044 1.737.046.287.048.572.047.863l.003.178c.001.744-.228 1.461-.758 2.001-.884.74-1.937.83-3.042.827h-.161c-1.31-.003-2.606-.135-3.908-.273l-1.465-.148-.5-.051a31 31 0 0 0-3.059-.175l-.164-.001c-1.272 0-2.526.125-3.789.27l-.85.094q-.471.051-.941.105-.394.045-.787.087l-.198.022c-.592.057-1.184.062-1.778.065l-.361.004c-1.239.02-2.385-.105-3.327-.985-.693-.779-.75-1.768-.704-2.758.056-.681.316-1.251.833-1.695 1.035-.781 2.468-.703 3.696-.543q.47.067.94.141c1.539.289 1.539.289 2.973-.205.475-.444.607-1.022.703-1.643l.026-.168c.087-.582.133-1.165.17-1.752l.036-.526c.052-.762.08-1.525.101-2.289l.004-.157c.033-1.197.053-2.394.072-3.592l.015-.914.025-1.553.07-4.259q.039-2.45.091-4.9l.005-.226.019-.861c.074-3.439.085-6.877.07-10.316L12.942.201q-.008-2.208-.02-4.416l-.006-1.233-.008-1.518-.004-.781a63 63 0 0 0-.087-3.24l-.008-.145c-.072-1.3-.151-2.502-1.119-3.47-.627-.434-1.302-.548-2.047-.421l-.173.032-.38.065-.197.034c-1.846.32-1.846.32-2.743.315l-.186-.001c-.777-.023-1.554-.22-2.12-.777-.634-.752-.716-1.66-.667-2.609.087-.714.346-1.365.916-1.831.847-.567 1.766-.674 2.759-.678l.147-.001c1.293-.002 2.571.176 3.851.342 1.15.148 2.267.211 3.423.082l.24-.026a38 38 0 0 0 2.132-.315c2.261-.385 2.261-.385 3.116.226m-328.159 15.75.161-.001c1.104-.001 2.194.11 3.291.24 1.211.142 2.408.254 3.626.108l.254-.028a35 35 0 0 0 1.498-.202c.93-.141 1.993-.27 2.81.293.702.581 1.023 1.422 1.11 2.31.033.642.02 1.271-.054 1.909a27 27 0 0 0-.14 2.084l-.013.196q-.088 2.189-.127 4.379l-.007.21c-.08 4.041-.074 8.082-.067 12.124v2.705q-.002 1.477.007 2.953v2.897c0 .844.007 1.688.033 2.531l.007.218c.054 1.344.261 2.775 1.037 3.903l.12.188c.348.339.729.502 1.217.502.482-.008.923-.1 1.385-.213l.462-.108.221-.052c.508-.119.983-.205 1.505-.199l.167.002c.923.016 1.82.176 2.509.839.562.585.763 1.28.796 2.082a2.8 2.8 0 0 1-.622 1.71l-.127.167c-.629.74-1.632 1.177-2.589 1.258q-.4.014-.809.009l-.147-.001c-1.739-.009-3.465-.233-5.184-.472-3.345-.464-6.556-.156-9.894.238l-.221.026-.408.049c-3.733.443-3.733.443-5.024-.421-.682-.55-.99-1.196-1.084-2.058-.067-.921.074-1.85.656-2.588.549-.597 1.298-.772 2.08-.85.883-.025 1.753.147 2.616.293 1.438.307 1.438.307 2.79-.074.896-.668 1.131-1.933 1.338-2.961l.04-.201q.062-.321.114-.644l.04-.212c.14-1.005.114-2.019.114-3.032v-.858c0-.559.007-1.118.007-1.677v-9.053q.009-1.743.007-3.485V8.157c.033-3.54.033-3.54-1.425-6.652-.448-.427-.876-.5-1.478-.491-.502.026-.983.143-1.472.249l-.468.098-.288.061c-1.224.261-2.569.287-3.666-.389-.528-.355-.783-.855-.93-1.463-.194-1.063-.067-1.994.535-2.897.923-1.01 2.428-1.087 3.693-1.087m614.911.004.165-.001c1.123-.003 2.228.104 3.342.236 1.211.143 2.406.254 3.622.108l.258-.028q.751-.085 1.498-.202c1.026-.156 2.037-.235 2.921.399.706.598.905 1.518.995 2.4.038.721-.033 1.432-.1 2.149a35 35 0 0 0-.123 1.834l-.009.217a232 232 0 0 0-.096 3.338l-.005.197c-.095 4.232-.077 8.465-.072 12.697l.001 2.612v.351l.001 3.222v1.123l.001 1.362.001.691c-.025 1.875-.025 1.875.193 3.733l.035.185c.181.902.429 2.014 1.201 2.594.539.351 1.08.342 1.707.234a26 26 0 0 0 .777-.187l.524-.129.231-.058c1.178-.267 2.524-.212 3.596.374.577.369.927.902 1.084 1.567.048.27.052.537.052.81l-.001.179c-.008.435-.067.788-.292 1.168l-.113.205c-.688.874-1.589 1.438-2.697 1.601-2.129.12-4.25-.16-6.355-.443-3.333-.448-6.52-.157-9.846.238l-.221.026-.408.049c-3.901.463-3.901.463-5.311-.642-.476-.425-.738-1.074-.804-1.702-.054-.958-.01-1.887.602-2.676.552-.617 1.304-.828 2.107-.887.893-.036 1.765.137 2.642.285 1.395.3 1.395.3 2.729-.023 1.207-.906 1.389-2.874 1.593-4.249a14 14 0 0 0 .103-1.835l.001-.287.001-.785.001-.848.001-1.853.001-1.159.002-3.215v-1.042q0-1.675.003-3.349l.002-3.446.002-1.932.001-1.646.001-.838c.007-2.191-.009-4.723-1.296-6.605l-.117-.188c-.413-.402-.836-.507-1.403-.504-.543.013-1.063.134-1.591.253l-.452.098-.278.061c-1.173.26-2.481.29-3.559-.31-.601-.405-.918-.969-1.07-1.678-.12-.981-.04-1.942.577-2.75.911-1.023 2.372-1.088 3.646-1.095m180.415 0 .165-.001c1.123-.003 2.228.104 3.342.236 1.197.141 2.383.259 3.584.108l.247-.028q.664-.078 1.325-.175c1.09-.159 2.193-.312 3.142.368.621.546.898 1.448.951 2.251q.007.31.004.62l-.001.229a22 22 0 0 1-.114 1.891c-.528 5.742-.258 11.619-.254 17.38v2.889l-.001 3.941v1.242q-.002.753.001 1.507v.766c-.06 3.13-.06 3.13 1.272 5.856.413.373.765.44 1.315.431.395-.027.771-.115 1.155-.209l.461-.108.221-.052c.515-.12.995-.207 1.525-.203l.175.001c.963.017 1.877.21 2.601.884.629.718.72 1.564.67 2.48-.074.782-.597 1.387-1.174 1.879-.903.656-1.872.836-2.969.827l-.152-.001c-1.971-.012-3.93-.3-5.879-.563-1.007-.134-1.999-.222-3.016-.202l-.222.004a40 40 0 0 0-.769.029l-.149.007c-1.503.077-3 .267-4.494.439l-.158.018-.738.086a22 22 0 0 1-2.484.172l-.275.004c-1.066.023-2.058-.174-2.886-.894-.703-.886-.759-1.852-.669-2.943.103-.715.453-1.27 1.01-1.718 1.202-.829 2.822-.48 4.158-.255 1.483.332 1.483.332 2.908.019 1.195-.937 1.401-2.945 1.585-4.345l.039-.323.018-.145c.056-.488.059-.973.058-1.464l.001-.282.001-.771.001-.833.001-1.82.001-1.139.002-3.159v-1.029l.003-3.29.002-3.385q0-.949.002-1.897l.001-1.617.001-.823c.053-3.769.053-3.769-1.551-7.04-.431-.393-.827-.443-1.399-.43-.493.025-.971.14-1.452.249l-.45.098-.405.09c-1.151.23-2.465.254-3.5-.365-.549-.398-.837-.89-1.007-1.538-.136-.903-.11-1.923.427-2.691.972-1.154 2.375-1.259 3.792-1.267m15.684-17.302c.188.167.188.167.334.334l.138.151c.528.749.614 1.634.531 2.525-.177.928-.797 1.68-1.547 2.227-.387.262-.79.489-1.207.697l-.138.069c-.602.296-1.217.564-1.832.833l-.385.169a386 386 0 0 1-2.358 1.027q-1.068.463-2.132.931-1.302.574-2.609 1.138-.644.278-1.284.564l-.737.328-.358.161c-2.238 1.011-2.238 1.011-3.337.696-.466-.206-.749-.512-.942-.981-.177-.559-.252-1.201-.027-1.756.446-.85 1.18-1.364 1.978-1.86l.19-.12.604-.378.408-.255.813-.508q.51-.319 1.02-.642 1.223-.77 2.448-1.534a415 415 0 0 0 2.186-1.372 268 268 0 0 1 1.492-.935 87 87 0 0 0 .946-.597c1.654-1.06 3.933-2.266 5.805-.914m-800.489 3.55c1.137.908 1.927 1.957 2.134 3.425.134 1.309-.154 2.65-.983 3.699-.863 1.038-1.967 1.795-3.331 1.969-1.472.127-2.83-.173-4.007-1.091-.997-.875-1.585-2.012-1.746-3.324-.094-1.496.261-2.778 1.217-3.955 1.666-1.811 4.716-2.21 6.716-.723m615.328.292a5.2 5.2 0 0 1 1.536 2.178l.065.168c.372 1.176.197 2.552-.307 3.654-.659 1.228-1.696 2.204-3.036 2.63-1.422.405-2.884.212-4.172-.488-1.174-.672-1.856-1.735-2.256-2.994-.352-1.306-.155-2.705.476-3.888.751-1.232 1.88-1.961 3.256-2.341 1.592-.353 3.178.074 4.438 1.082" fill="currentColor" style="stroke-width:1"/></svg>
