<svg xmlns="http://www.w3.org/2000/svg" width="1080" height="1080" viewBox="0 0 1080 1080" fill="none"><path d="M517.952.194c-2.536.168-10.722.676-18.155 1.272-86.722 5.91-173.943 34.702-248.677 82.069-103.925 65.95-183.18 166.35-222.567 282.2C13.919 408.544 5.098 451.946.995 499.992c-1.3 16.298-1.3 63.836 0 80.217C8.79 673.6 37.51 758.632 86.882 834.375c56.757 86.969 137.809 156.548 231.45 198.433 57.673 25.923 115.011 40.525 180.617 46.1 16.302 1.436 65.448 1.436 81.907.095 82.666-7.01 158.413-30.235 227.23-69.926 140.086-80.638 236.515-217.936 264.13-376.092 2.451-14.27 5.15-35.21 6.587-51.93 1.35-15.874 1.35-65.948-.086-81.906-4.136-48.215-12.838-90.519-27.53-133.836C997.737 208.17 871.753 82.27 714.276 28.74 671.632 14.217 627.725 5.176 581.28 1.378 570.305.448 526.056-.394 517.952.194m30.621 86.945c14.805.174 29.542.622 35.662 1.21 20.945 2.113 51.936 7.603 69.667 12.33 18.49 4.981 42.136 12.33 46.862 14.692.93.422 4.308 1.775 7.433 2.956 6.16 2.28 20.603 8.781 30.983 13.847 42.814 21.195 80.137 48.216 116.108 84.102 37.745 37.66 64.85 75.068 86.973 119.905 26.006 52.775 40.615 105.297 46.357 167.19 5.743 60.375-2.112 121.678-23.897 186.865-21.28 63.583-52.099 115.767-97.19 164.404-14.186 15.285-37.66 36.14-56.574 50.155-9.88 7.436-30.823 21.618-37.066 25.08-1.526.843-3.467 2.027-4.226 2.448-14.183 8.867-47.457 25.757-64.683 32.764-71.937 29.467-154.015 37.825-236.005 24.151-68.395-11.487-130.458-38.34-188.302-81.488-11.317-8.445-24.235-18.909-30.82-24.993-1.86-1.686-4.307-3.886-5.49-4.895-6.497-5.657-25.664-25.162-35.545-36.31-44.736-50.58-80.157-119.483-97.8-190.58-2.94-11.737-7.248-33.27-8.41-42.052-4.24-30.398-4.65-35.886-4.65-66.284 0-29.976.41-36.985 3.692-60.797 5.95-43.57 16.89-84.017 33.097-122.438 5.402-12.75 16.754-35.97 20.856-42.894 1.3-2.196 4.376-7.431 6.838-11.57 7.03-11.99 17.41-27.273 28.139-41.375 30.307-40.108 72.614-79.287 116.099-107.575 59.533-38.588 133.166-63.158 205.78-68.48 6.42-.468 21.301-.548 36.112-.368" fill="currentColor"/><g transform="matrix(1.07977 0 0 1.05582 -12.769 9.246)" fill="currentColor"><ellipse cx="514.027" cy="160.497" ry="39.32" rx="38.447"/><path d="M514.192 255.827c-.469 4.558-1.565 13.116-2.344 19.034-.785 5.918-1.722 12.956-1.957 15.595-.627 5.678-5.243 44.386-7.428 61.981-.861 6.798-2.977 24.233-4.693 38.788a5365 5365 0 0 1-3.914 31.99c-.468 3.039-4.452 35.989-8.992 73.177-4.535 37.189-8.911 72.938-9.772 79.575-.862 6.559-2.818 22.394-4.3 35.19-1.489 12.716-3.129 26.392-3.597 30.39-.475 3.919-1.489 12.317-2.35 18.555-1.957 14.715-1.875 17.595.393 27.112 3.28 13.435 6.491 27.271 10.24 43.506 1.957 8.557 4.224 18.475 5.085 21.993.786 3.519 2.426 10.317 3.522 15.195 1.095 4.799 3.128 13.436 4.458 19.194 1.33 5.679 3.597 15.598 5.079 21.994 1.412 6.397 3.363 14.477 4.148 17.992.861 3.521 2.812 12.001 4.3 18.796 1.564 6.796 3.521 15.276 4.376 18.714.862 3.439 2.116 8.879 2.742 11.995 2.109 10.24 2.578 11.678 4.218 11.678 1.096 0 1.723-1.039 2.584-4.237 1.248-4.642 29.873-122.443 39.568-162.911 3.439-14.316 6.568-27.032 7.043-28.312 1.792-4.718 2.501-13.515 1.64-20.873-.393-3.999-1.64-14.955-2.736-24.392a1559 1559 0 0 1-2.349-21.594c-.235-2.399-1.33-11.756-2.344-20.793-1.019-9.037-3.128-27.751-4.692-41.588-1.565-13.835-3.287-29.51-3.914-34.789a3188 3188 0 0 1-2.736-23.992c-.861-7.918-2.577-23.913-3.907-35.589-1.33-11.677-3.439-30.711-4.769-42.387-1.254-11.677-3.604-32.15-5.085-45.586-1.489-13.436-3.439-30.71-4.225-38.548-.779-7.758-1.874-16.875-2.267-20.394-.468-3.439-1.722-14.716-2.894-25.032-4.224-39.828-5.396-49.025-6.257-49.345-.621-.24-1.248 2.479-1.874 7.918"/></g><g transform="matrix(1.07977 0 0 1.05582 -12.769 9.246)" fill="currentColor"><ellipse cx="626.665" cy="252.228" ry="39.32" rx="38.447"/><path d="M568.465 304.052c.31 1.279 1.406 5.358 2.419 8.957a1115 1115 0 0 1 3.832 13.196c1.095 3.679 2.976 10.237 4.224 14.635 1.33 4.399 3.99 13.756 6.022 20.794 9.696 33.91 14.623 51.184 16.973 58.782.855 2.879 2.343 8.237 3.363 11.996a1050 1050 0 0 0 5.313 18.794c3.597 12.316 9.461 32.71 17.365 60.382 2.426 8.557 5.237 18.314 6.257 21.593a300 300 0 0 1 2.97 10.397c1.564 5.838 28.309 99.249 34.249 119.323 1.957 6.558 2.742 8.078 4.927 9.837 1.488 1.119 12.672 8.477 24.87 16.395 12.197 7.837 25.648 16.555 29.948 19.434 22.368 14.716 69.133 44.546 69.915 44.546 1.408 0 1.016-1.2-1.72-6.158-1.487-2.559-5.709-10.797-9.541-18.234-3.754-7.518-7.116-13.996-7.429-14.396-.313-.48-2.972-5.518-5.866-11.197-7.507-14.875-19.706-38.387-22.599-43.746-.939-1.919-6.491-12.636-12.2-23.833s-11.89-23.112-13.688-26.392c-1.717-3.278-4.611-8.717-6.251-11.996-2.894-5.918-21.272-41.427-26.978-52.383a1038 1038 0 0 1-7.822-15.196c-2.742-5.278-9.233-17.914-14.471-27.991-5.237-10.157-12.982-25.033-17.2-33.19-4.224-8.157-9.151-17.674-10.95-21.194-1.798-3.518-5.161-9.996-7.428-14.395-5.63-11.037-10.874-21.114-15.016-29.191-1.957-3.759-5.554-10.797-8.055-15.595-2.502-4.878-5.63-10.957-7.036-13.596-3.287-6.238-7.745-14.715-17.599-33.99-15.561-30.15-18.847-36.388-20.095-37.588-1.096-1.039-1.178-.96-.703 1.2"/></g><g transform="matrix(1.07977 0 0 1.05582 -12.769 9.246)" fill="currentColor"><ellipse cx="401.059" cy="252.308" ry="39.32" rx="38.447"/><path d="M462.128 303.084c-.196-.042-.487.168-.88.648-1.096 1.36-11.26 20.873-38.555 73.897-6.333 12.396-10.868 21.034-14.072 27.192-1.647 3.039-5.32 10.236-8.214 15.994-2.894 5.679-5.548 10.718-5.864 11.198-.311.399-3.439 6.558-7.036 13.595a6108 6108 0 0 1-12.749 24.793c-3.362 6.558-8.131 15.755-10.481 20.394-2.425 4.638-5.788 11.116-7.504 14.395-1.723 3.279-5.244 10.156-7.821 15.195-2.584 5.038-6.65 12.956-9.152 17.595-2.425 4.638-6.959 13.276-10.006 19.194-6.96 13.835-19.163 37.348-22.444 43.586-1.412 2.639-4.306 8.238-6.415 12.397-5.864 11.436-34.014 65.98-40.898 79.175-3.363 6.398-9.696 18.634-14.078 27.191-13.369 25.992-15.016 29.191-15.719 29.991-1.013 1.04-.861 3.599.158 3.599.545 0 4.3-2.238 8.449-5.038 4.141-2.799 12.431-8.238 18.454-12.077a4033 4033 0 0 0 21.114-13.595 39516 39516 0 0 1 61.778-39.828c15.326-9.837 17.048-11.356 18.296-15.435.944-3.199 13.217-45.746 17.283-59.981 1.722-6.159 5.085-17.835 7.428-25.993 2.274-8.157 5.244-18.553 6.65-23.192 1.33-4.639 3.597-12.557 5.085-17.595 4.224-14.795 6.257-21.753 11.419-39.588 2.653-9.277 5.471-19.355 6.333-22.394.779-3.119 2.267-8.316 3.28-11.595 1.02-3.279 2.977-9.998 4.383-14.796 1.329-4.879 3.28-11.676 4.3-15.195 1.019-3.518 4.065-13.996 6.649-23.194 2.66-9.277 6.726-23.432 9.069-31.589 2.35-8.158 5.396-18.554 6.726-23.193 1.254-4.638 3.362-11.837 4.534-15.996 1.254-4.158 3.521-12.075 5.085-17.593s3.522-12.397 4.377-15.436c1.291-4.199 1.614-6.599 1.038-6.726"/></g></svg>
